<?xml version="1.0" standalone="no"?>
<!DOCTYPE svg PUBLIC "-//W3C//DTD SVG 20010904//EN"
 "http://www.w3.org/TR/2001/REC-SVG-20010904/DTD/svg10.dtd">
<svg version="1.0" xmlns="http://www.w3.org/2000/svg"
 width="800.000000pt" height="800.000000pt" viewBox="0 0 800.000000 800.000000"
 preserveAspectRatio="xMidYMid meet">

<g transform="translate(0.000000,800.000000) scale(0.100000,-0.100000)"
fill="#000000" stroke="none">
<path d="M3820 7890 c-8 -5 -10 -10 -5 -10 6 -1 -24 -14 -66 -29 -50 -18 -89
-26 -113 -23 -23 3 -36 0 -36 -7 0 -7 -4 -10 -8 -7 -5 3 -31 -5 -58 -18 -27
-12 -61 -26 -76 -29 -15 -4 -35 -16 -45 -26 -20 -20 -67 -36 -57 -19 4 5 -4 4
-17 -3 -23 -13 -28 -14 -57 -17 -7 -1 -11 -6 -8 -10 2 -4 -5 -9 -17 -10 -38
-3 -102 -29 -100 -41 2 -6 -8 -13 -22 -17 -14 -3 -25 -10 -25 -15 0 -5 -28
-37 -62 -70 -35 -33 -63 -64 -63 -69 0 -10 -14 -25 -24 -25 -13 0 -102 -88
-145 -145 -69 -90 -105 -157 -109 -202 -1 -9 -5 -14 -9 -12 -10 7 -26 -28 -20
-45 2 -8 0 -11 -5 -8 -6 4 -35 -43 -66 -104 -36 -70 -51 -109 -41 -105 8 3 12
2 9 -4 -3 -6 -13 -10 -22 -10 -9 0 -13 -3 -10 -7 4 -3 -3 -20 -16 -37 -26 -35
-47 -81 -46 -99 0 -7 5 -1 10 12 5 13 12 22 15 19 8 -8 -18 -58 -27 -52 -5 3
-9 1 -9 -5 0 -5 6 -12 13 -14 9 -4 9 -7 -1 -15 -16 -11 -44 -111 -35 -126 4
-5 5 -35 4 -65 -6 -153 -3 -283 7 -277 5 3 6 -9 4 -26 -3 -21 -1 -29 7 -24 6
4 11 1 11 -8 0 -9 9 -30 20 -48 11 -18 20 -50 20 -71 0 -23 4 -36 10 -32 6 4
10 -5 10 -20 0 -14 8 -42 19 -63 10 -20 24 -65 30 -100 7 -35 23 -84 37 -109
13 -25 24 -57 24 -71 0 -17 4 -23 14 -19 10 4 13 1 9 -9 -3 -7 -1 -14 5 -14
10 0 23 -44 43 -147 15 -80 17 -107 7 -114 -5 -3 -11 -34 -13 -70 -3 -35 -8
-74 -11 -87 -8 -38 60 -128 109 -145 19 -7 21 -3 8 21 -14 27 -49 210 -55 292
-3 41 -11 152 -16 245 -11 179 -18 234 -51 405 -11 58 -22 125 -25 150 -13
132 -21 270 -18 291 2 13 6 45 9 72 4 26 10 45 14 42 5 -2 6 6 4 19 -3 15 1
25 12 30 13 5 15 2 10 -14 -4 -12 -3 -40 1 -63 l7 -42 12 53 c12 52 25 79 25
51 0 -8 -7 -72 -15 -142 -15 -137 -12 -177 11 -136 11 22 13 22 20 6 6 -17 7
-17 27 0 19 18 19 17 13 -4 -10 -32 7 -29 37 7 25 29 26 29 29 7 3 -20 5 -20
21 11 10 17 22 32 28 32 8 0 8 -4 1 -13 -7 -8 -7 -18 -2 -27 8 -12 10 -12 16
3 3 9 11 14 17 10 6 -3 7 -1 3 5 -4 6 6 18 23 27 16 8 37 25 45 37 9 12 16 17
16 10 0 -7 5 -10 10 -7 6 3 10 15 10 26 0 11 6 22 14 25 8 3 12 12 10 19 -3 8
4 20 15 27 12 7 21 17 21 23 0 9 11 21 75 87 17 17 29 35 28 39 -2 5 3 6 10 3
7 -2 19 7 27 21 7 14 20 25 28 25 10 0 7 -10 -13 -37 l-27 -38 36 40 c20 22
36 49 37 60 0 19 1 19 11 -2 9 -19 5 -32 -25 -81 -20 -32 -39 -79 -43 -103 -3
-24 -13 -55 -21 -69 l-14 -25 21 24 c12 14 24 37 27 53 3 15 13 33 22 40 14
12 14 11 3 -4 -8 -9 -11 -26 -7 -37 3 -11 1 -29 -4 -40 -14 -26 13 -23 32 4 8
10 19 15 25 11 7 -4 12 -1 12 7 0 22 26 41 36 26 4 -8 11 -4 20 12 7 13 10 27
8 31 -3 4 3 19 12 34 15 22 19 23 26 10 12 -22 34 -20 51 4 7 11 23 21 34 23
12 2 35 17 51 35 21 22 36 30 49 26 14 -5 15 -4 3 5 -8 5 -12 11 -10 13 29 19
52 27 62 23 15 -6 51 48 40 60 -4 5 -1 5 6 1 7 -4 10 -13 6 -19 -3 -7 6 1 20
16 14 15 26 25 26 21 0 -4 10 2 23 14 34 32 76 45 96 30 14 -11 14 -11 3 3
-11 14 -8 18 20 30 18 7 37 18 41 23 5 6 6 -11 3 -39 l-5 -50 18 45 c11 25 18
47 16 50 -2 3 3 11 11 18 12 11 16 9 23 -10 9 -20 10 -18 10 15 1 32 3 36 14
25 8 -7 16 -20 20 -28 4 -12 6 -11 6 3 1 9 6 17 11 17 6 0 19 9 30 20 l20 20
2 -65 c0 -36 1 -71 2 -77 1 -7 -5 -12 -11 -11 -7 2 -13 -2 -13 -7 0 -6 5 -10
11 -10 6 0 8 -7 5 -16 -3 -8 -2 -13 3 -10 5 3 12 -10 15 -29 5 -26 3 -40 -9
-51 -21 -21 -19 -27 5 -12 17 11 20 21 17 56 -2 23 0 42 5 42 5 0 6 5 3 10 -3
6 -1 10 4 10 6 0 11 7 11 16 0 8 -4 12 -10 9 -6 -4 -10 10 -10 34 0 27 5 41
13 41 7 0 21 16 31 35 11 19 21 33 24 30 3 -2 0 -10 -5 -17 -6 -7 -13 -25 -15
-41 -4 -22 -3 -25 8 -16 8 6 14 20 14 30 0 14 9 21 30 26 32 6 36 13 19 30 -8
8 -8 13 0 17 6 4 11 1 12 -6 5 -63 9 -91 14 -96 3 -3 17 1 32 9 14 8 35 13 47
12 14 -1 15 0 4 3 -9 3 -19 12 -22 20 -5 12 -2 12 15 3 25 -13 26 -12 33 25 3
15 10 33 15 40 6 7 8 16 5 19 -4 3 0 13 9 21 13 14 16 14 22 -2 3 -9 1 -18 -4
-20 -7 -2 -8 -10 -2 -20 5 -9 7 -33 5 -52 -3 -25 -1 -31 6 -20 5 8 10 29 10
46 0 17 3 34 8 38 12 12 9 30 -8 44 -13 12 -13 13 3 8 13 -4 17 1 17 24 0 17
5 30 10 30 7 0 7 7 0 21 -7 11 -9 27 -6 34 2 7 1 26 -4 42 -6 21 -9 23 -9 8
-1 -14 -10 -4 -26 28 -29 57 -33 84 -6 44 13 -20 20 -24 24 -15 2 8 -1 22 -9
32 -7 11 -11 23 -8 28 7 11 33 -21 34 -39 0 -7 10 -23 21 -34 16 -16 23 -18
29 -9 5 9 9 9 14 1 4 -6 12 -9 17 -6 5 4 9 1 9 -5 0 -7 6 -10 14 -7 14 6 55
-59 81 -130 7 -21 14 -30 14 -20 1 10 -8 35 -19 57 -25 48 -25 51 0 47 28 -4
60 -41 60 -69 1 -21 2 -22 14 -5 19 24 31 21 42 -10 10 -27 10 -27 16 -5 3 12
2 20 -3 16 -5 -3 -9 2 -9 12 0 9 -8 23 -17 31 -16 13 -16 13 5 3 43 -21 45 -2
10 89 -10 27 4 52 17 30 5 -8 4 -10 -3 -5 -15 9 -15 6 3 -38 8 -20 13 -36 10
-36 -3 0 1 -13 10 -30 13 -26 14 -29 0 -24 -8 4 -15 1 -15 -5 0 -20 63 -141
70 -136 4 3 16 -7 25 -21 11 -17 12 -24 4 -18 -8 4 1 -9 19 -31 17 -22 32 -48
32 -58 0 -10 7 -20 15 -23 8 -4 13 -9 10 -13 -5 -9 23 -93 36 -106 7 -7 8 -3
3 10 -13 35 9 7 28 -37 l18 -43 -26 30 c-14 17 -24 25 -21 20 6 -11 11 -49 22
-145 12 -108 37 -245 51 -279 8 -19 12 -36 10 -38 -2 -3 9 -41 25 -86 16 -45
29 -82 28 -82 -5 0 64 -211 72 -219 15 -17 10 15 -16 98 -14 43 -25 87 -25 97
0 10 -4 20 -9 24 -5 3 -17 28 -27 57 -13 40 -14 55 -5 70 6 10 11 23 11 30 0
10 -3 9 -9 -1 -6 -10 -12 -4 -21 23 -10 30 -9 38 4 52 9 8 14 19 11 23 -2 4
-5 37 -7 74 -1 36 -5 64 -9 61 -4 -2 -4 8 0 23 5 16 5 37 1 49 -4 11 -6 40 -5
64 3 30 -2 55 -14 75 -10 16 -24 48 -32 70 -12 38 -13 39 -20 15 -6 -22 -7
-20 -8 12 -1 51 -31 116 -55 122 -17 4 -18 7 -5 22 12 15 12 17 0 9 -11 -6
-13 -3 -9 13 4 12 2 20 -3 16 -18 -11 -8 26 12 45 18 16 19 22 7 40 -7 12 -16
21 -20 21 -5 0 -8 7 -8 15 0 8 -3 15 -8 15 -4 0 -18 18 -32 40 -14 22 -28 40
-33 40 -4 0 -6 4 -2 9 3 5 -3 12 -14 16 -19 6 -35 38 -31 63 0 8 -6 26 -15 40
l-16 27 20 -24 c12 -13 21 -30 21 -38 0 -8 5 -11 10 -8 24 15 -78 124 -135
144 -33 12 -85 51 -85 65 0 2 8 7 18 9 9 3 4 5 -13 4 -20 -1 -29 2 -27 11 1 8
-2 11 -7 8 -5 -4 -12 -2 -15 3 -4 5 10 15 30 21 24 8 32 15 24 20 -7 4 -10 12
-7 16 8 13 -18 45 -40 49 -10 2 -19 4 -20 5 -2 2 -6 3 -10 5 -27 7 -69 28 -74
37 -4 6 -12 7 -19 3 -9 -6 -9 -9 1 -16 10 -6 4 -9 -18 -9 -20 0 -33 5 -33 13
0 8 -3 8 -9 -2 -6 -9 -29 -16 -58 -18 -41 -2 -45 -1 -25 9 12 6 22 17 22 25 0
16 -5 16 -48 4 -27 -8 -32 -7 -32 7 0 15 -2 15 -10 2 -5 -8 -10 -10 -10 -4 0
5 9 20 20 32 24 25 26 36 5 28 -10 -3 -15 1 -15 13 0 10 -9 21 -20 24 -12 3
-20 0 -20 -8 0 -7 -7 -19 -17 -26 -15 -13 -15 -12 -2 8 7 12 11 24 9 25 -3 2
-25 16 -48 32 -24 15 -41 30 -38 33 2 3 17 -4 33 -14 48 -34 59 -36 24 -4 -20
18 -44 30 -60 29 -32 -1 -50 4 -118 30 -29 11 -53 17 -53 12 0 -4 -33 -1 -72
6 -86 16 -98 17 -118 4z m214 -35 c-6 -16 -24 -21 -24 -7 0 11 11 22 21 22 5
0 6 -7 3 -15z m-67 -11 c-3 -3 -12 -4 -19 -1 -8 3 -5 6 6 6 11 1 17 -2 13 -5z
m113 -1 c-8 -3 -24 -13 -34 -22 -18 -15 -18 -15 -5 7 8 12 23 22 34 21 14 0
16 -2 5 -6z m70 -21 c20 -10 34 -25 34 -34 -1 -10 4 -14 12 -11 10 4 12 0 8
-11 -3 -9 -10 -13 -15 -11 -11 7 -66 -21 -72 -37 -3 -7 -6 -8 -6 -2 -1 5 14
25 32 44 l32 33 -27 -5 c-16 -3 -28 -1 -28 3 0 5 6 9 13 9 6 0 4 5 -6 11 -9 5
-22 7 -27 4 -6 -3 -7 1 -4 9 7 20 10 19 54 -2z m-506 -11 c8 -12 -14 -28 -49
-36 -26 -5 -25 -3 8 11 28 12 35 19 25 25 -9 6 -9 9 -1 9 6 0 14 -4 17 -9z
m404 -36 c-3 -3 -9 2 -12 12 -6 14 -5 15 5 6 7 -7 10 -15 7 -18z m62 21 c0 -9
-30 -14 -35 -6 -4 6 3 10 14 10 12 0 21 -2 21 -4z m-590 -36 c-8 -5 -24 -9
-35 -9 -16 1 -16 2 5 9 35 11 48 11 30 0z m720 -20 c0 -3 -7 -15 -15 -26 -13
-16 -14 -16 -9 -1 4 10 1 17 -6 17 -6 0 -9 4 -6 8 6 10 36 12 36 2z m51 -126
c-11 -15 -21 -24 -21 -20 0 12 33 57 37 52 3 -3 -4 -17 -16 -32z m284 6 c3 -6
-1 -7 -9 -4 -18 7 -21 14 -7 14 6 0 13 -4 16 -10z m-70 -9 c3 -5 -3 -11 -12
-14 -10 -2 9 -2 43 1 50 4 62 2 67 -12 4 -9 2 -16 -2 -16 -5 0 -11 5 -13 11
-2 7 -12 7 -30 0 -15 -6 -39 -7 -55 -2 -15 4 -34 6 -42 3 -8 -3 -6 3 5 16 22
23 30 26 39 13z m166 -32 c7 -13 7 -19 1 -15 -6 3 -13 2 -17 -4 -3 -5 1 -10 9
-10 9 0 16 -4 16 -10 0 -5 -7 -10 -15 -10 -15 0 -17 5 -17 40 0 38 6 40 23 9z
m-281 -39 c0 -5 -5 -10 -11 -10 -5 0 -7 5 -4 10 3 6 8 10 11 10 2 0 4 -4 4
-10z m45 -10 c-3 -5 1 -10 9 -10 8 0 18 5 21 10 3 6 11 10 17 10 6 0 0 -10
-13 -23 -14 -13 -27 -18 -31 -13 -4 6 -14 4 -25 -5 -24 -21 -56 -33 -47 -17 5
7 -1 9 -20 4 -32 -8 -32 -5 -4 20 12 10 18 13 14 7 -10 -18 5 -16 32 3 12 8
22 12 22 8 0 -5 5 -3 12 4 15 15 21 16 13 2z m55 -105 c0 -11 -14 7 -31 40 -7
13 -3 12 10 -5 11 -14 21 -29 21 -35z m44 -48 l16 -32 -25 30 c-25 30 -33 51
-16 40 6 -3 17 -20 25 -38z m266 -40 c0 -5 -11 5 -25 21 -14 17 -25 34 -25 38
0 11 49 -48 50 -59z m24 -3 c3 -8 2 -12 -4 -9 -6 3 -10 10 -10 16 0 14 7 11
14 -7z m-7 -46 c-3 -8 -6 -5 -6 6 -1 11 2 17 5 13 3 -3 4 -12 1 -19z m-43 -38
c-6 -6 -10 2 -11 23 -2 30 -1 31 9 9 7 -14 8 -26 2 -32z m-321 0 c3 -11 1 -18
-4 -14 -5 3 -9 12 -9 20 0 20 7 17 13 -6z m-13 -29 c5 -11 9 -28 9 -38 -1 -16
-2 -15 -6 2 -3 11 -12 28 -21 38 -9 10 -11 17 -4 17 6 0 16 -9 22 -19z m390
-35 c0 -26 -6 -18 -14 19 -5 22 -4 26 4 15 5 -8 10 -24 10 -34z m-140 6 c0
-15 -2 -15 -10 -2 -13 20 -13 33 0 25 6 -3 10 -14 10 -23z m-204 -20 c-5 41
12 23 20 -20 4 -20 12 -40 18 -44 8 -6 8 -8 -1 -8 -6 0 -9 -9 -6 -20 4 -16 0
-20 -18 -20 -19 0 -21 2 -9 10 8 5 10 10 4 10 -7 0 -14 15 -17 33 -3 17 -8 46
-12 62 l-6 30 16 -30 15 -30 -4 27z m-37 -31 c0 -10 -2 -11 -6 -3 -2 6 -11 12
-19 12 -9 0 -13 4 -9 10 9 14 35 0 34 -19z m-1707 -3 c-7 -7 -12 -8 -12 -2 0
14 12 26 19 19 2 -3 -1 -11 -7 -17z m2193 -36 c-7 -8 -45 20 -45 33 0 9 7 7
24 -8 14 -12 23 -23 21 -25z m-494 -12 c5 0 9 8 10 18 0 11 2 12 6 4 3 -7 -1
-19 -8 -28 -10 -12 -14 -12 -20 -2 -5 7 -8 22 -7 33 1 17 1 17 5 -2 2 -13 9
-23 14 -23z m450 13 c13 -16 12 -17 -3 -4 -10 7 -18 15 -18 17 0 8 8 3 21 -13z
m44 -23 c3 -5 0 -7 -8 -4 -11 4 -13 -1 -10 -20 6 -32 -5 -34 -16 -3 -11 28 18
52 34 27z m-469 -47 c-10 -10 -19 5 -10 18 6 11 8 11 12 0 2 -7 1 -15 -2 -18z
m484 2 c0 -8 -2 -15 -4 -15 -2 0 -6 7 -10 15 -3 8 -1 15 4 15 6 0 10 -7 10
-15z m80 -19 c0 -2 -7 -7 -16 -10 -8 -3 -12 -2 -9 4 6 10 25 14 25 6z m-670
-56 c0 -5 -5 -10 -11 -10 -5 0 -7 5 -4 10 3 6 8 10 11 10 2 0 4 -4 4 -10z
m-70 -10 c0 -5 -5 -10 -11 -10 -5 0 -7 5 -4 10 3 6 8 10 11 10 2 0 4 -4 4 -10z
m90 -25 c0 -8 -4 -15 -10 -15 -5 0 -7 7 -4 15 4 8 8 15 10 15 2 0 4 -7 4 -15z
m-404 -20 c-37 -32 -46 -32 -16 0 13 14 28 25 34 25 6 0 -2 -11 -18 -25z m371
-12 c-3 -10 -5 -4 -5 12 0 17 2 24 5 18 2 -7 2 -21 0 -30z m-150 5 c-3 -8 -6
-5 -6 6 -1 11 2 17 5 13 3 -3 4 -12 1 -19z m-282 -48 c-3 -5 -14 -10 -23 -10
-15 0 -15 2 -2 10 20 13 33 13 25 0z m1149 -45 c5 -29 4 -36 -3 -25 -6 8 -11
28 -11 44 0 39 6 31 14 -19z m-1644 -55 c-6 -11 -13 -20 -16 -20 -2 0 0 9 6
20 6 11 13 20 16 20 2 0 0 -9 -6 -20z m-87 -35 c-3 -9 -8 -14 -10 -11 -3 3 -2
9 2 15 9 16 15 13 8 -4z m22 -125 c-8 -9 -13 -19 -10 -22 3 -2 -7 -15 -21 -29
-17 -16 -23 -18 -19 -7 4 9 13 19 21 22 7 3 11 12 8 20 -3 8 0 17 5 21 6 3 9
11 6 16 -3 5 1 6 10 3 14 -6 14 -8 0 -24z m1753 5 c-3 -3 -9 2 -12 12 -6 14
-5 15 5 6 7 -7 10 -15 7 -18z m-2381 -67 c-3 -8 -6 -5 -6 6 -1 11 2 17 5 13 3
-3 4 -12 1 -19z m-10 -50 c-3 -8 -6 -5 -6 6 -1 11 2 17 5 13 3 -3 4 -12 1 -19z
m119 -134 c-9 -8 -16 -24 -16 -34 0 -10 -5 -22 -10 -25 -7 -4 -9 3 -6 20 5 29
23 55 38 55 5 0 2 -7 -6 -16z"/>
<path d="M4385 7500 c-16 -7 -17 -9 -3 -9 9 -1 20 4 23 9 7 11 7 11 -20 0z"/>
<path d="M4738 7473 c7 -3 16 -2 19 1 4 3 -2 6 -13 5 -11 0 -14 -3 -6 -6z"/>
<path d="M2960 7459 c0 -5 5 -7 10 -4 6 3 10 8 10 11 0 2 -4 4 -10 4 -5 0 -10
-5 -10 -11z"/>
<path d="M4911 7224 c0 -11 3 -14 6 -6 3 7 2 16 -1 19 -3 4 -6 -2 -5 -13z"/>
<path d="M4731 7034 c0 -11 3 -14 6 -6 3 7 2 16 -1 19 -3 4 -6 -2 -5 -13z"/>
<path d="M5050 6953 c0 -13 5 -23 11 -23 6 0 9 -6 6 -14 -3 -8 1 -22 9 -33 13
-17 14 -16 8 11 -4 16 -13 41 -20 55 -13 25 -14 25 -14 4z"/>
<path d="M4481 6874 c0 -11 3 -14 6 -6 3 7 2 16 -1 19 -3 4 -6 -2 -5 -13z"/>
<path d="M4130 6869 c0 -5 5 -7 10 -4 6 3 10 8 10 11 0 2 -4 4 -10 4 -5 0 -10
-5 -10 -11z"/>
<path d="M4413 6855 c-3 -9 -3 -18 -1 -21 3 -3 8 4 11 16 6 23 -1 27 -10 5z"/>
<path d="M4200 6833 c0 -7 4 -13 9 -13 5 0 13 6 19 13 8 10 6 13 -9 13 -10 0
-19 -6 -19 -13z"/>
<path d="M4269 6833 c-13 -16 -12 -17 4 -4 16 13 21 21 13 21 -2 0 -10 -8 -17
-17z"/>
<path d="M4615 6560 c28 -12 37 -12 30 0 -3 6 -16 10 -28 9 -21 0 -21 -1 -2
-9z"/>
<path d="M4453 6547 c-24 -5 -43 -14 -43 -18 0 -5 -6 -9 -13 -9 -18 0 -67 -23
-67 -32 0 -11 -62 -38 -73 -31 -5 3 -7 2 -4 -4 4 -6 -5 -15 -18 -21 -14 -7
-25 -18 -25 -26 0 -7 -8 -20 -17 -27 -16 -13 -17 -12 -4 4 9 11 10 17 2 17
-12 0 -14 -11 -11 -49 1 -13 -2 -21 -7 -18 -5 3 -8 -6 -7 -21 3 -45 4 -48 14
-32 9 13 10 13 10 0 0 -13 1 -13 10 0 5 8 10 20 10 25 0 6 -4 4 -9 -3 -7 -11
-9 -11 -14 1 -3 9 4 23 16 33 12 10 16 12 10 4 -9 -10 -10 -17 -2 -27 8 -9 8
-21 1 -43 -15 -43 1 -37 34 13 27 40 28 41 34 18 l5 -24 14 29 c8 16 16 24 18
17 3 -7 16 -13 29 -13 31 0 22 -20 -9 -21 -17 -1 -18 -2 -4 -6 16 -4 15 -6 -5
-23 -13 -10 -30 -16 -40 -15 -12 3 -15 -1 -11 -12 4 -11 2 -14 -5 -9 -8 5 -12
0 -12 -13 0 -11 -5 -23 -10 -26 -6 -4 -11 -25 -11 -48 1 -23 -2 -73 -5 -112
-2 -38 -1 -65 3 -60 16 20 33 15 33 -9 0 -31 15 -42 68 -51 23 -4 42 -11 42
-17 0 -6 7 -8 15 -5 8 4 17 2 20 -3 3 -4 -1 -11 -7 -13 -7 -3 -4 -6 7 -6 17
-1 17 -3 5 -11 -12 -7 -8 -10 15 -10 17 0 45 -4 63 -10 37 -10 202 7 202 21 0
4 -33 8 -73 7 -56 0 -81 4 -102 18 l-28 18 32 8 c17 5 31 13 31 17 0 5 19 12
42 16 33 6 38 9 24 17 -9 5 -14 14 -11 19 4 5 10 7 15 4 13 -8 93 14 105 29
23 28 129 41 182 21 7 -2 15 0 18 5 4 6 -2 10 -13 10 -11 0 -39 16 -64 36 -69
56 -155 82 -272 83 l-59 1 28 22 c22 17 42 22 94 22 107 1 136 -9 196 -70 58
-58 92 -71 80 -31 -10 30 -55 77 -82 83 -13 4 -20 11 -17 16 4 6 1 9 -7 6 -8
-3 -34 1 -58 9 -24 7 -68 13 -98 13 -40 0 -53 4 -53 15 0 11 11 15 38 15 25 0
33 3 23 9 -11 7 -9 10 10 13 22 4 21 5 -11 16 l-35 12 40 -5 c29 -4 36 -3 25
4 -8 6 -40 11 -70 12 -39 2 -45 3 -20 6 19 2 42 7 50 10 8 3 21 5 28 4 6 -1
12 3 12 10 0 6 -9 9 -22 6 -13 -3 -41 -2 -63 2 l-40 7 53 18 c28 10 58 15 65
13 6 -3 2 -6 -9 -6 -12 -1 -28 -9 -35 -18 -12 -15 -12 -16 6 -9 37 15 96 26
106 21 5 -4 9 -2 9 3 0 8 31 18 77 24 21 3 1 28 -31 37 -17 5 -23 10 -13 10
14 1 16 5 7 20 -5 11 -19 23 -30 26 -11 4 -18 10 -15 15 3 4 -9 13 -27 19 -41
14 -43 14 -27 -6 13 -15 12 -15 -8 -5 -26 14 -36 15 -28 3 3 -6 -3 -9 -14 -8
-11 0 -18 4 -15 8 5 9 -87 29 -124 28 -15 -1 -46 -6 -69 -12z m307 -61 c0 -11
-19 -15 -25 -6 -3 5 1 10 9 10 9 0 16 -2 16 -4z m-223 -129 c0 -7 -13 -14 -29
-15 -17 -1 -27 2 -23 7 3 6 12 8 19 5 8 -3 17 -1 21 5 8 14 12 14 12 -2z
m-121 -29 c4 -6 3 -8 -4 -4 -6 3 -13 2 -17 -4 -4 -6 -11 -7 -17 -4 -6 4 -5 10
3 15 19 12 27 11 35 -3z m327 -240 c9 -5 17 -14 17 -20 0 -21 -41 -57 -58 -51
-9 4 -13 2 -9 -4 4 -6 0 -14 -9 -17 -24 -9 -28 -7 -14 9 7 8 11 33 8 59 -3 44
-2 45 22 39 14 -3 33 -10 43 -15z m-293 -98 c13 -24 -2 -27 -24 -4 -20 19 -20
24 -1 24 8 0 19 -9 25 -20z m53 -127 c-7 -2 -19 -2 -25 0 -7 3 -2 5 12 5 14 0
19 -2 13 -5z"/>
<path d="M4796 6515 c10 -8 24 -14 29 -14 6 0 1 6 -9 14 -11 8 -24 15 -30 15
-5 0 -1 -7 10 -15z"/>
<path d="M4725 6370 c-3 -6 1 -7 9 -4 18 7 21 14 7 14 -6 0 -13 -4 -16 -10z"/>
<path d="M4755 6360 c-3 -6 1 -7 9 -4 18 7 21 14 7 14 -6 0 -13 -4 -16 -10z"/>
<path d="M2685 6323 c-8 -20 -13 -38 -10 -41 3 -3 5 -3 5 0 0 3 7 22 15 42 8
20 13 36 10 36 -2 0 -12 -16 -20 -37z"/>
<path d="M3279 6333 c-13 -17 -13 -17 6 -3 11 8 22 16 24 17 2 2 0 3 -6 3 -6
0 -17 -8 -24 -17z"/>
<path d="M3365 6328 c-9 -6 -25 -8 -36 -5 -10 3 -17 1 -13 -4 3 -5 -9 -9 -26
-9 -18 0 -33 -6 -36 -15 -4 -8 -10 -13 -14 -10 -4 3 -11 -3 -14 -12 -5 -12
-10 -13 -18 -5 -8 8 -16 7 -32 -1 -39 -22 -75 -55 -68 -62 4 -4 0 -6 -8 -5
-34 5 -50 -1 -50 -18 0 -21 -39 -62 -59 -62 -7 0 -9 -4 -6 -10 8 -13 -15 -55
-24 -44 -3 5 -16 -1 -28 -13 -12 -13 -17 -23 -11 -23 6 0 3 -9 -6 -19 -12 -13
-14 -21 -6 -26 6 -3 9 -1 8 6 -2 7 8 15 22 19 23 6 24 7 6 17 -12 7 -15 13 -7
17 6 4 11 2 11 -5 0 -10 3 -10 12 -1 7 7 21 12 32 12 19 -1 19 -2 -4 -16 -24
-14 -22 -14 35 -9 l60 5 -66 -18 c-36 -10 -80 -29 -97 -42 -18 -13 -32 -24
-32 -25 0 0 9 -1 19 -1 11 0 17 4 15 8 -8 13 34 28 80 28 43 0 69 14 44 23 -7
2 5 4 26 4 23 -1 41 4 44 11 2 8 26 12 64 12 43 0 59 -3 55 -12 -2 -7 -19 -13
-38 -14 -63 -1 -79 -4 -79 -15 0 -8 14 -10 45 -6 44 7 46 6 62 -28 15 -31 18
-33 36 -20 10 7 26 11 33 8 8 -3 14 -1 14 5 0 5 10 13 23 16 23 8 87 15 87 10
0 -1 -33 -15 -72 -29 -40 -15 -77 -32 -83 -36 -5 -5 -19 -9 -32 -9 -13 0 -26
-7 -30 -16 -5 -13 -7 -13 -14 -2 -6 8 -12 9 -16 3 -5 -5 -17 -18 -28 -27 -20
-16 -21 -16 -21 1 0 10 7 18 16 17 10 -1 16 10 18 36 l3 37 -28 -14 c-15 -8
-33 -15 -39 -15 -6 0 -19 -9 -29 -20 -16 -18 -16 -20 -2 -20 10 0 17 -8 17
-20 0 -11 5 -20 11 -20 6 0 2 -12 -9 -27 -11 -16 -20 -30 -20 -33 0 -3 -5 -23
-11 -45 -6 -22 -11 -43 -11 -46 0 -14 33 -19 49 -8 9 7 -1 -4 -21 -24 -21 -20
-38 -38 -38 -40 0 -9 49 -14 52 -5 2 5 26 10 55 11 28 1 49 5 46 10 -2 4 1 7
7 7 6 0 9 4 6 9 -4 5 48 9 124 8 102 -2 129 -5 125 -15 -3 -9 5 -7 25 5 17 9
30 20 30 23 0 3 9 6 20 7 11 1 20 -4 20 -13 0 -8 -6 -14 -13 -14 -7 0 -22 -8
-33 -18 -10 -10 -27 -16 -38 -14 -11 3 -16 0 -12 -7 4 -7 -1 -11 -13 -11 -12
0 -21 -7 -21 -15 0 -9 -14 -22 -30 -29 -41 -17 -28 -27 18 -14 44 12 159 55
186 69 10 6 16 6 12 1 -3 -5 4 -9 16 -8 12 0 23 7 24 14 1 7 0 8 -3 2 -7 -14
-20 -12 -26 4 -3 7 0 13 6 13 60 -2 77 4 77 24 0 15 5 19 15 15 9 -3 21 5 32
22 10 15 23 31 30 35 18 11 16 46 -2 53 -23 9 -18 22 16 40 29 14 31 19 26 54
-3 24 -1 40 6 43 13 4 -4 49 -45 120 -15 26 -28 57 -28 67 0 13 -5 17 -14 14
-14 -5 -29 10 -32 34 -5 28 -14 43 -23 37 -6 -3 -9 3 -8 14 1 16 5 18 19 10
13 -7 18 -6 18 3 1 8 7 5 15 -6 13 -18 15 -18 15 -3 0 10 -7 20 -15 23 -8 4
-15 16 -16 28 0 11 -3 16 -5 9 -4 -8 -20 -2 -49 18 -23 16 -51 29 -61 28 -16
0 -15 -2 4 -9 12 -5 22 -15 22 -22 0 -10 -2 -10 -8 -1 -4 6 -19 15 -35 18 -15
4 -25 11 -22 15 3 5 -6 7 -20 4 -14 -2 -25 -1 -25 3 0 12 -115 12 -135 1z
m-280 -148 c-3 -5 -11 -10 -16 -10 -6 0 -7 5 -4 10 3 6 11 10 16 10 6 0 7 -4
4 -10z m590 -10 c3 -5 2 -10 -4 -10 -5 0 -13 5 -16 10 -3 6 -2 10 4 10 5 0 13
-4 16 -10z m-605 -24 c0 -2 -7 -7 -16 -10 -8 -3 -12 -2 -9 4 6 10 25 14 25 6z
m340 -36 c0 -5 -2 -10 -4 -10 -3 0 -8 5 -11 10 -3 6 -1 10 4 10 6 0 11 -4 11
-10z m-33 -6 c-3 -3 -12 -4 -19 -1 -8 3 -5 6 6 6 11 1 17 -2 13 -5z m-81 -27
c9 -8 -35 -29 -49 -23 -7 2 -4 5 6 5 9 1 17 6 17 12 0 7 -11 8 -30 4 -16 -3
-37 -2 -47 4 -13 7 -3 9 40 6 32 -1 60 -5 63 -8z m-213 -34 c-7 -2 -21 -2 -30
0 -10 3 -4 5 12 5 17 0 24 -2 18 -5z m72 0 c-16 -3 -34 -9 -39 -14 -16 -15
-28 -10 -14 6 7 8 29 14 48 13 33 -1 34 -1 5 -5z m215 -148 c0 -9 -7 -18 -15
-21 -22 -9 -67 5 -59 17 4 8 9 7 14 -1 5 -8 10 -9 14 -2 4 6 14 8 23 5 11 -4
14 -3 9 5 -4 7 -2 12 3 12 6 0 11 -7 11 -15z m45 -4 c-3 -6 -11 -8 -17 -5 -6
4 -5 9 3 15 16 10 23 4 14 -10z m-123 -25 c16 -12 14 -15 -23 -39 -23 -15 -45
-27 -49 -27 -5 0 -12 -9 -15 -21 -4 -11 -9 -18 -13 -15 -3 3 -16 -1 -30 -10
-22 -15 -24 -14 -20 3 2 12 11 17 23 15 16 -3 18 -1 8 9 -10 10 -9 17 9 36 12
13 25 23 30 23 4 0 17 9 28 20 23 23 29 24 52 6z m263 -46 c23 0 35 -33 19
-48 -8 -7 -14 -9 -14 -5 0 4 -5 1 -10 -7 -8 -12 -10 -10 -10 10 0 14 -3 36 -5
50 -3 14 -3 19 1 13 3 -7 12 -13 19 -13z m-256 -86 c26 -43 26 -44 2 -44 -36
0 -80 21 -74 36 3 8 11 14 18 14 7 0 15 7 19 15 8 21 12 19 35 -21z m441 27
c0 -6 -4 -13 -10 -16 -5 -3 -10 1 -10 9 0 9 5 16 10 16 6 0 10 -4 10 -9z
m-297 -88 c-7 -2 -21 -2 -30 0 -10 3 -4 5 12 5 17 0 24 -2 18 -5z m-56 -9 c-3
-3 -12 -4 -19 -1 -8 3 -5 6 6 6 11 1 17 -2 13 -5z"/>
<path d="M5194 6185 c3 -11 8 -33 12 -49 5 -23 9 -25 16 -13 6 11 2 27 -13 49
-11 18 -18 24 -15 13z"/>
<path d="M3700 6181 c0 -6 4 -13 10 -16 6 -3 7 1 4 9 -7 18 -14 21 -14 7z"/>
<path d="M3010 6153 c-23 -23 -23 -24 -3 -14 22 11 38 30 32 35 -2 2 -15 -8
-29 -21z"/>
<path d="M5327 6102 c-32 -35 -45 -84 -37 -142 12 -91 31 -163 41 -153 8 8 22
313 15 313 -2 0 -10 -8 -19 -18z"/>
<path d="M2975 5962 c-11 -2 -24 -7 -28 -12 -5 -4 10 -4 33 0 22 4 43 10 47
13 5 6 -17 6 -52 -1z"/>
<path d="M3065 5940 c-30 -15 -35 -19 -18 -20 30 0 73 17 73 30 0 14 -9 12
-55 -10z"/>
<path d="M2965 5931 c-16 -7 -14 -9 15 -14 18 -4 35 -5 38 -2 3 3 -2 5 -12 5
-9 0 -14 5 -11 10 7 12 -2 12 -30 1z"/>
<path d="M2915 5920 c-16 -7 -17 -9 -3 -9 9 -1 20 4 23 9 7 11 7 11 -20 0z"/>
<path d="M3020 5840 c-8 -5 -10 -10 -5 -10 6 0 17 5 25 10 8 5 11 10 5 10 -5
0 -17 -5 -25 -10z"/>
<path d="M5297 5579 c4 -13 8 -18 11 -10 2 7 -1 18 -6 23 -8 8 -9 4 -5 -13z"/>
<path d="M2447 5503 c-4 -3 -7 -14 -7 -23 0 -25 88 -197 105 -204 8 -3 21 -21
29 -41 8 -19 20 -35 26 -35 6 0 8 -4 5 -10 -3 -5 -2 -10 3 -10 6 0 13 -12 16
-26 4 -15 10 -24 13 -21 9 10 -16 131 -37 175 -11 22 -20 48 -20 57 0 8 -4 15
-9 15 -5 0 -8 22 -6 49 3 46 1 49 -31 65 -36 17 -76 21 -87 9z"/>
<path d="M4664 5282 c3 -6 -1 -12 -9 -16 -8 -3 -15 -11 -15 -18 0 -20 155
-170 165 -161 5 4 4 0 -4 -9 -11 -14 -9 -19 8 -30 24 -15 28 -33 6 -24 -18 6
-19 1 -5 -25 8 -13 7 -19 0 -19 -6 0 3 -13 20 -30 29 -29 30 -30 8 -30 -20 0
-21 -2 -7 -15 16 -16 49 -11 49 7 0 5 -5 18 -11 30 -16 29 -7 31 23 3 14 -13
29 -21 32 -18 3 4 6 -1 6 -10 0 -9 4 -17 9 -17 13 0 22 31 26 87 2 40 -1 51
-29 80 -17 19 -35 41 -39 49 -5 8 -12 12 -16 9 -5 -2 -31 20 -59 50 -28 30
-62 57 -76 61 -14 3 -26 10 -26 15 0 5 -14 16 -31 25 -17 8 -28 11 -25 6z
m190 -267 c-4 -8 -10 -15 -15 -15 -4 0 -6 7 -3 15 4 8 10 15 15 15 4 0 6 -7 3
-15z"/>
<path d="M4410 5163 c-14 -2 -41 -17 -60 -33 -34 -28 -34 -28 -16 -49 l19 -21
35 20 c19 12 41 19 47 16 19 -7 57 38 49 57 -6 16 -21 18 -74 10z"/>
<path d="M3757 5147 c-5 -14 32 -82 40 -74 2 2 1 23 -3 46 -6 40 -26 55 -37
28z"/>
<path d="M3690 5136 c-6 -8 -10 -25 -7 -38 l4 -23 8 23 c4 12 11 22 16 22 5 0
9 7 9 15 0 19 -14 19 -30 1z"/>
<path d="M3960 5121 c0 -5 -19 -12 -41 -16 -24 -4 -53 -19 -70 -35 l-29 -27
25 -23 c21 -19 24 -31 22 -81 -1 -33 -5 -59 -10 -59 -4 0 -6 4 -2 9 3 5 1 12
-5 16 -6 4 -10 -5 -10 -20 0 -18 6 -29 19 -32 11 -3 21 -17 24 -31 7 -34 -9
-52 -18 -22 -6 18 -9 19 -16 9 -6 -10 -8 -9 -8 6 0 56 -14 113 -27 108 -10 -3
-10 -11 -3 -31 7 -18 6 -28 -3 -34 -10 -7 -9 -11 4 -18 10 -6 15 -17 11 -26
-5 -13 -8 -13 -15 -2 -5 7 -8 9 -6 3 31 -78 29 -75 51 -63 12 6 23 11 25 10
10 -7 22 0 16 11 -5 8 -2 7 9 -2 10 -8 20 -12 22 -9 8 7 -6 38 -16 38 -5 0 -9
10 -9 21 0 21 1 21 20 -4 11 -14 20 -30 20 -36 0 -14 13 -14 28 1 9 9 12 9 12
-3 0 -18 60 -25 70 -9 4 6 19 12 34 13 15 1 31 9 36 17 7 10 10 11 10 3 0 -8
14 -13 35 -13 19 0 35 5 35 11 0 7 10 5 25 -5 33 -22 52 -21 34 1 -13 15 -12
15 6 6 27 -15 77 -4 93 19 7 10 19 18 25 17 9 0 8 -2 -1 -6 -6 -2 -10 -8 -7
-13 8 -12 45 0 45 15 0 16 30 28 30 12 0 -7 8 -3 16 8 8 11 20 19 25 17 6 -1
8 2 4 8 -3 6 -11 7 -17 4 -6 -4 -8 1 -6 12 2 11 9 18 15 17 7 -2 10 8 9 23 -4
34 -56 77 -77 62 -11 -8 -11 -9 3 -5 9 3 19 -1 22 -9 9 -22 7 -26 -5 -18 -6 3
-15 1 -19 -7 -7 -10 -11 -10 -24 0 -17 14 -18 11 -18 -29 1 -18 -1 -20 -5 -7
-3 14 -11 17 -29 13 -13 -3 -35 -9 -49 -12 -24 -6 -25 -5 -15 21 9 24 8 26 -9
20 -16 -5 -24 3 -42 42 -12 26 -23 53 -23 58 -1 10 -8 9 -66 -1 -51 -9 -65 -9
-67 0 0 5 -9 14 -19 19 -16 9 -16 11 -1 22 14 10 12 12 -14 12 -19 0 -25 -3
-17 -9 22 -14 -2 -9 -32 7 -17 9 -30 11 -30 6z m500 -181 c-13 -24 -16 -25
-24 -4 -3 8 -2 12 3 9 5 -3 12 -1 16 5 11 19 16 10 5 -10z m-535 -10 c3 -5 1
-10 -4 -10 -6 0 -11 5 -11 10 0 6 2 10 4 10 3 0 8 -4 11 -10z m518 -28 c14
-15 14 -19 3 -19 -8 0 -17 9 -19 19 -3 10 -4 18 -3 18 2 0 10 -8 19 -18z
m-534 -19 c-7 -10 -15 -20 -16 -22 -2 -2 -3 5 -3 17 0 14 6 22 16 22 14 0 15
-3 3 -17z m470 -10 c-7 -10 -14 -19 -15 -21 -1 -2 -4 4 -8 13 -3 9 -2 13 3 10
5 -3 12 -1 16 5 3 5 9 10 12 10 3 0 -1 -8 -8 -17z m-447 -45 c-7 -7 -12 -8
-12 -2 0 6 3 14 7 17 3 4 9 5 12 2 2 -3 -1 -11 -7 -17z m41 -8 c-3 -11 -9 -17
-15 -14 -5 3 -4 12 3 20 16 19 18 18 12 -6z m49 -32 c-15 -15 -26 -4 -18 18 5
13 9 15 18 6 9 -9 9 -15 0 -24z"/>
<path d="M4285 5050 c-3 -5 -1 -10 4 -10 6 0 11 5 11 10 0 6 -2 10 -4 10 -3 0
-8 -4 -11 -10z"/>
<path d="M3622 5031 c2 -7 7 -12 11 -12 12 1 9 15 -3 20 -7 2 -11 -2 -8 -8z"/>
<path d="M4504 5023 c3 -16 -2 -23 -18 -25 -18 -3 -18 -4 -4 -10 23 -9 38 12
27 37 -9 19 -9 19 -5 -2z"/>
<path d="M4756 5030 c7 -8 11 -27 9 -42 -2 -16 1 -30 5 -33 5 -3 7 4 5 16 -2
12 1 31 7 43 6 11 7 18 3 14 -5 -4 -15 -2 -24 5 -14 10 -14 10 -5 -3z"/>
<path d="M4460 5026 c0 -2 7 -7 16 -10 8 -3 12 -2 9 4 -6 10 -25 14 -25 6z"/>
<path d="M4575 5009 c-4 -6 -5 -12 -2 -15 2 -3 7 2 10 11 7 17 1 20 -8 4z"/>
<path d="M4540 4996 c0 -9 -7 -16 -15 -16 -9 0 -14 -9 -13 -24 2 -20 5 -23 25
-15 24 9 39 -3 28 -21 -5 -8 -11 -8 -19 -1 -9 8 -13 7 -13 -3 0 -15 49 -15 54
0 2 6 -6 21 -17 34 -11 13 -18 30 -16 37 3 7 1 15 -4 18 -6 4 -10 -1 -10 -9z"/>
<path d="M3625 4990 c3 -5 8 -10 11 -10 2 0 4 5 4 10 0 6 -5 10 -11 10 -5 0
-7 -4 -4 -10z"/>
<path d="M4629 4998 c-6 -26 -4 -35 7 -35 16 0 19 23 4 32 -5 3 -10 5 -11 3z"/>
<path d="M4590 4957 c0 -9 4 -18 9 -21 5 -4 8 1 7 9 -3 21 -16 31 -16 12z"/>
<path d="M2740 4937 c0 -16 32 -61 45 -63 20 -3 19 19 -2 38 -22 18 -43 31
-43 25z"/>
<path d="M4794 4881 c11 -17 -45 -71 -128 -125 -113 -74 -127 -81 -136 -66 -4
7 -16 9 -29 5 -12 -4 -21 -2 -21 4 0 6 3 10 8 9 14 -3 82 14 87 23 3 4 12 6
19 3 8 -3 17 -1 21 5 4 7 -7 11 -32 11 -41 0 -218 -36 -244 -50 -26 -13 -73
-19 -212 -25 -71 -3 -137 -10 -148 -16 -27 -14 -194 -41 -244 -40 -28 1 -45 8
-56 23 -9 11 -28 22 -43 24 -30 3 -34 -10 -8 -25 9 -6 11 -11 5 -11 -7 0 -13
-7 -13 -15 0 -23 -18 -18 -23 8 -3 16 -5 14 -6 -10 -2 -46 -11 -68 -22 -51 -6
9 -9 3 -9 -17 0 -22 -3 -26 -10 -15 -8 12 -10 12 -16 -4 -4 -10 -2 -21 3 -25
6 -3 13 -13 16 -21 4 -12 6 -11 6 3 1 14 5 16 20 8 24 -13 47 9 29 27 -9 9 -3
9 22 2 19 -6 36 -6 39 -1 9 13 77 6 103 -11 32 -21 88 -33 88 -19 0 14 37 15
45 1 3 -5 13 -7 23 -4 14 5 14 4 3 -4 -8 -6 -20 -8 -28 -5 -18 7 -17 -22 3
-41 17 -17 25 -20 124 -36 75 -13 139 -13 154 -1 6 5 38 14 71 21 62 14 102
29 76 30 -7 0 -11 6 -7 15 3 8 1 15 -3 15 -5 0 -12 -6 -14 -12 -3 -7 -6 2 -6
20 -1 34 7 40 27 20 9 -9 12 -9 12 0 0 7 6 12 14 12 8 0 16 4 18 9 2 6 14 12
28 14 43 8 77 25 91 44 8 10 45 43 84 73 52 40 77 53 98 52 21 -2 40 7 68 32
35 32 41 34 69 25 17 -6 42 -9 55 -6 15 2 25 -1 25 -7 0 -6 6 -2 12 9 11 19
11 19 20 0 7 -16 8 -15 5 8 -3 15 -1 27 3 27 4 0 7 11 6 25 -1 23 -2 24 -13 8
-12 -16 -13 -16 -13 0 0 9 -5 17 -11 17 -5 0 -7 -5 -3 -12 4 -7 3 -8 -4 -4 -7
4 -12 16 -12 28 0 17 -3 18 -15 8 -11 -9 -19 -8 -37 4 -25 18 -42 21 -34 7z
m-901 -358 c-7 -2 -19 -2 -25 0 -7 3 -2 5 12 5 14 0 19 -2 13 -5z m119 -24
c22 -12 125 -11 133 0 3 6 18 6 37 0 23 -6 36 -5 47 5 31 26 55 -1 27 -30 -13
-12 -15 -12 -19 4 -3 10 -5 7 -6 -10 -1 -33 -17 -44 -37 -27 -11 9 -18 8 -33
-5 -14 -12 -21 -14 -26 -6 -4 6 -17 10 -29 7 -11 -2 -32 -1 -46 3 l-25 8 28 1
c15 1 27 6 27 12 0 6 -12 9 -27 7 -16 -2 -33 3 -39 12 -10 12 -14 12 -28 1
-14 -12 -19 -11 -36 4 -11 10 -20 22 -20 27 0 9 44 1 72 -13z"/>
<path d="M3320 4866 c0 -9 5 -16 10 -16 6 0 10 4 10 9 0 6 -4 13 -10 16 -5 3
-10 -1 -10 -9z"/>
<path d="M3540 4860 c0 -5 5 -10 10 -10 6 0 10 5 10 10 0 6 -4 10 -10 10 -5 0
-10 -4 -10 -10z"/>
<path d="M3770 4845 c0 -5 5 -17 10 -25 5 -8 10 -10 10 -5 0 6 -5 17 -10 25
-5 8 -10 11 -10 5z"/>
<path d="M3645 4811 c-3 -5 0 -11 6 -13 6 -2 1 -14 -12 -28 -14 -16 -20 -19
-16 -8 7 19 -8 34 -18 18 -9 -15 -25 -2 -18 15 3 8 0 15 -6 15 -6 0 -11 -5
-11 -11 0 -5 -4 -7 -10 -4 -5 3 -10 -1 -10 -9 0 -9 -5 -16 -11 -16 -5 0 -8 -4
-4 -9 3 -6 -4 -15 -16 -22 -15 -7 -18 -13 -10 -18 6 -4 14 -35 16 -69 2 -34 8
-69 13 -78 6 -10 8 3 5 40 -2 33 1 56 7 56 6 0 10 -9 10 -20 0 -11 5 -20 10
-20 6 0 8 11 4 25 -4 15 -2 25 5 25 6 0 11 -8 12 -17 0 -15 2 -15 8 2 5 11 7
23 5 27 -7 11 45 58 51 47 4 -5 3 -15 -1 -21 -4 -7 9 3 29 22 20 19 37 43 37
54 0 14 -7 10 -30 -19 -16 -21 -30 -32 -30 -25 0 8 7 21 15 30 12 14 12 17 -5
28 -11 6 -22 8 -25 3z"/>
<path d="M3720 4760 c-8 -5 -11 -12 -7 -16 4 -4 13 -2 19 4 15 15 7 24 -12 12z"/>
<path d="M2900 4741 c0 -6 4 -13 10 -16 6 -3 7 1 4 9 -7 18 -14 21 -14 7z"/>
<path d="M2940 4661 c0 -6 4 -13 10 -16 6 -3 7 1 4 9 -7 18 -14 21 -14 7z"/>
<path d="M4441 4523 c0 -5 4 -17 9 -28 8 -18 9 -17 9 8 1 15 -3 27 -9 27 -5 0
-10 -3 -9 -7z"/>
<path d="M4407 4475 c7 -36 9 -39 22 -30 16 9 13 35 -3 35 -8 0 -17 6 -20 13
-3 6 -3 -1 1 -18z"/>
<path d="M4350 4455 c0 -8 5 -15 10 -15 6 0 10 7 10 15 0 8 -4 15 -10 15 -5 0
-10 -7 -10 -15z"/>
<path d="M4391 4454 c0 -11 3 -14 6 -6 3 7 2 16 -1 19 -3 4 -6 -2 -5 -13z"/>
<path d="M4323 4417 c-23 -7 -45 -16 -50 -21 -5 -5 -1 -7 9 -3 10 3 20 2 24
-4 4 -6 12 -5 22 3 14 11 15 10 9 -5 -4 -10 -7 -23 -7 -28 0 -6 -4 -8 -9 -4
-5 3 -12 -3 -14 -12 -4 -15 -5 -16 -6 -2 -1 20 -51 21 -51 1 0 -7 -4 -11 -9
-7 -6 3 -14 -2 -19 -11 -5 -10 -16 -15 -24 -11 -18 7 -34 -22 -42 -75 -3 -28
-1 -38 9 -38 8 0 12 -8 9 -22 -5 -23 -4 -23 5 -2 10 24 29 39 37 31 3 -3 -2
-17 -11 -31 -10 -14 -13 -26 -9 -26 5 0 4 -4 -3 -8 -8 -5 -9 -13 -3 -22 8 -12
10 -11 11 5 1 11 1 22 1 25 0 3 8 17 19 30 l20 25 -7 -30 -6 -30 21 30 c13 19
21 24 21 14 0 -11 9 -16 30 -15 21 1 30 6 30 19 0 19 0 19 50 22 26 1 35 6 34
18 -2 21 10 22 26 2 7 -9 15 -13 18 -10 3 2 -6 14 -19 25 l-24 21 30 -4 c17
-2 24 -2 17 0 -8 3 -12 16 -10 31 2 21 -4 31 -29 47 -18 11 -35 28 -39 38 -3
10 -8 16 -11 14 -2 -3 3 -19 12 -36 8 -17 11 -31 6 -31 -5 0 -12 7 -15 16 -4
9 -13 14 -21 10 -22 -8 -19 20 5 44 33 33 30 35 -37 17z m112 -125 c-3 -3 -11
0 -18 7 -9 10 -8 11 6 5 10 -3 15 -9 12 -12z"/>
<path d="M5234 4363 c3 -16 15 -80 26 -143 11 -63 24 -139 30 -169 19 -102
-34 -225 -147 -343 -25 -27 -39 -48 -31 -48 7 -1 2 -7 -12 -14 -14 -8 -32 -27
-41 -43 -9 -16 -26 -29 -40 -31 -30 -5 -66 -40 -47 -46 39 -12 41 -14 16 -15
-17 -1 -28 -7 -28 -15 0 -8 -9 -18 -21 -21 -11 -4 -38 -24 -58 -45 -33 -35
-114 -70 -128 -56 -5 4 35 30 49 31 3 0 10 3 14 8 4 4 14 7 21 7 14 0 43 23
43 34 0 2 -10 7 -22 9 l-23 4 23 2 c12 0 22 7 22 15 0 19 -34 10 -56 -15 -10
-12 -30 -19 -51 -19 -20 0 -32 -4 -28 -10 7 -11 -5 -13 -44 -10 -17 1 -22 -2
-19 -12 8 -19 -38 -40 -51 -24 -5 6 -9 16 -8 21 1 6 -13 11 -30 13 -37 4 -45
-14 -10 -21 16 -3 13 -5 -10 -6 -27 -1 -33 3 -33 19 0 11 -4 20 -9 20 -13 0
-51 -50 -51 -66 0 -8 -9 -14 -19 -14 -26 0 -38 68 -19 101 21 38 64 67 52 36
-5 -15 23 -44 33 -33 3 3 1 6 -5 6 -17 0 -15 37 3 44 8 3 14 13 14 23 -1 17
-2 17 -6 1 -8 -32 -26 -20 -19 13 3 17 6 35 6 39 0 4 11 10 25 12 17 4 25 1
25 -8 0 -8 7 -14 16 -14 9 0 14 6 11 13 -2 6 5 24 15 39 12 17 17 36 13 48 -4
12 -2 20 5 20 6 0 9 -3 7 -7 -3 -5 0 -17 4 -28 7 -15 8 -10 5 18 -4 28 -1 37
10 37 8 0 16 0 19 0 10 0 42 35 38 42 -2 4 5 9 16 13 11 3 38 23 60 44 32 30
39 43 35 64 -5 33 3 35 16 5 9 -20 10 -18 7 14 -1 20 1 34 5 32 12 -7 35 19
30 34 -2 6 4 15 13 18 9 4 12 10 7 13 -5 3 -13 17 -17 30 -6 20 -4 23 9 18 9
-4 16 -2 16 3 0 6 -8 10 -19 10 -21 0 -35 -36 -17 -44 7 -3 7 -5 -2 -5 -7 -1
-10 -6 -6 -13 5 -8 2 -9 -9 -5 -21 8 -21 3 -1 -17 13 -13 13 -16 1 -16 -8 0
-20 14 -27 30 -7 17 -15 29 -17 26 -2 -2 -21 12 -40 32 -20 21 -28 27 -18 14
11 -13 20 -32 22 -43 3 -17 0 -18 -18 -8 -12 6 -32 23 -45 38 -13 14 -24 21
-24 14 0 -7 8 -17 18 -22 9 -6 14 -11 9 -11 -4 0 5 -13 19 -30 15 -16 32 -26
38 -23 6 4 5 -1 -3 -11 -12 -14 -13 -21 -2 -38 10 -16 10 -19 -1 -16 -7 3 -15
18 -18 34 -3 16 -11 30 -18 30 -6 1 -14 3 -17 4 -3 1 -9 3 -14 4 -5 0 -13 5
-18 10 -5 6 -2 6 7 1 13 -8 13 -7 1 8 -14 18 -26 23 -16 8 3 -5 1 -12 -5 -16
-5 -3 -10 3 -10 14 0 23 -16 36 -25 21 -3 -5 -2 -10 3 -10 5 0 7 -11 4 -25 -4
-24 -15 -26 -18 -4 -1 5 -2 10 -4 12 -1 1 -3 10 -5 20 -5 27 -15 34 -15 11 0
-15 -2 -16 -9 -5 -5 8 -7 21 -3 29 3 10 1 13 -6 9 -6 -4 -13 1 -16 10 -2 10
-3 1 -1 -20 1 -21 10 -46 18 -55 14 -16 49 -102 41 -102 -6 0 -25 41 -29 62
-6 29 -14 35 -26 18 -8 -12 -9 -10 -4 7 4 16 0 25 -15 33 -11 6 -17 16 -14 22
4 6 3 8 -3 5 -5 -3 -20 7 -32 24 -20 27 -41 31 -41 8 0 -6 4 -8 9 -4 6 3 15
-5 22 -17 11 -22 11 -22 -6 -8 -17 14 -17 13 -10 -10 8 -25 8 -25 -14 -6 -11
11 -21 25 -21 33 0 7 -5 13 -11 13 -5 0 -7 -4 -4 -10 9 -14 -8 -13 -23 2 -21
21 -13 -4 13 -38 30 -39 34 -57 5 -23 -11 14 -19 18 -20 11 0 -8 -5 -10 -12
-6 -8 5 -9 2 -5 -10 4 -10 7 -24 7 -32 0 -9 5 -12 12 -8 7 4 8 3 4 -4 -11 -19
-23 -14 -30 11 -7 29 -7 29 -28 51 -10 11 -18 22 -18 26 0 3 -9 6 -20 6 -23 0
-27 -28 -7 -45 17 -14 27 -4 20 17 -4 12 -1 11 10 -3 9 -11 11 -22 6 -23 -5
-2 -6 -9 -3 -14 4 -6 2 -8 -4 -4 -6 3 -12 -3 -14 -16 -4 -22 -5 -22 -16 5 -12
29 -26 39 -15 10 4 -11 3 -14 -5 -9 -8 5 -10 1 -5 -10 5 -13 3 -16 -10 -11
-14 5 -16 2 -11 -21 4 -21 3 -24 -5 -12 -9 12 -11 10 -11 -10 -1 -22 -2 -23
-11 -7 -8 14 -7 24 5 42 10 16 14 35 10 52 -3 16 -6 33 -6 40 -1 7 -6 9 -11 6
-6 -3 -8 9 -5 30 2 20 0 33 -5 30 -4 -2 -6 -34 -4 -69 3 -44 1 -67 -8 -72 -7
-4 -15 -14 -18 -22 -5 -11 -6 -9 -5 5 2 27 -12 56 -23 49 -5 -3 -9 2 -9 10 0
23 18 28 29 9 6 -10 10 -13 10 -8 0 6 -6 18 -13 28 -13 17 -15 17 -24 1 -6
-12 -11 -13 -17 -5 -14 23 -35 -10 -35 -55 0 -23 -5 -46 -11 -50 -8 -4 -9 13
-4 59 7 62 6 65 -12 61 -11 -3 -27 -19 -37 -35 -10 -16 -22 -27 -27 -24 -5 4
-9 0 -9 -8 0 -8 -7 -17 -15 -21 -20 -7 -19 4 2 34 15 23 16 24 0 12 -9 -8 -19
-23 -22 -33 -5 -16 -10 -17 -20 -9 -11 9 -16 6 -25 -10 -6 -12 -14 -19 -17
-17 -2 3 1 16 8 29 11 21 11 22 -4 9 -10 -7 -17 -19 -17 -27 0 -7 -5 -16 -11
-20 -14 -8 -2 53 14 76 6 8 -2 3 -17 -12 -31 -32 -41 -35 -32 -12 10 27 -23
-4 -40 -38 -17 -32 -39 -38 -31 -8 4 16 0 20 -19 20 -15 0 -24 -6 -24 -16 0
-9 -9 -33 -19 -53 -11 -20 -22 -44 -25 -53 -7 -24 -36 -12 -36 16 0 26 -16 53
-26 43 -4 -3 -1 -13 6 -22 10 -12 10 -15 -1 -16 -8 0 -24 -2 -36 -3 -15 -2
-25 4 -29 17 -5 16 -8 17 -15 6 -14 -23 -11 -33 19 -53 15 -9 19 -15 10 -12
-10 3 -18 1 -18 -4 0 -6 6 -10 14 -10 7 0 19 -7 26 -16 11 -12 11 -15 0 -12
-18 4 -26 -32 -9 -43 10 -6 10 -10 0 -23 -20 -23 -31 -19 -31 11 0 33 -9 26
-12 -10 l-2 -27 -26 31 c-14 17 -44 72 -66 121 l-42 90 -16 -46 c-25 -71 -42
-122 -76 -233 -18 -57 -34 -103 -37 -103 -2 0 -1 9 2 21 6 18 4 20 -17 14 -81
-25 -305 -120 -350 -149 -39 -25 -75 -39 -138 -50 -83 -16 -161 -36 -290 -75
-36 -10 -135 -40 -221 -65 -86 -25 -181 -55 -210 -67 -30 -11 -74 -28 -99 -36
-25 -8 -98 -37 -163 -64 -92 -39 -122 -47 -137 -39 -34 18 -51 11 -115 -51
-80 -77 -120 -152 -155 -293 -23 -92 -38 -129 -81 -200 -87 -141 -113 -180
-136 -210 -15 -18 -23 -42 -23 -66 0 -24 -7 -43 -20 -55 -11 -10 -28 -41 -39
-69 -11 -28 -42 -101 -69 -162 -27 -61 -53 -122 -57 -135 -4 -13 -15 -35 -25
-49 -9 -14 -20 -42 -24 -62 -4 -21 -31 -111 -61 -200 -54 -161 -115 -388 -115
-425 0 -11 -11 -30 -24 -42 -13 -13 -27 -39 -31 -59 -4 -20 -13 -49 -21 -64
-8 -15 -14 -48 -14 -73 0 -32 -37 -156 -125 -417 -69 -204 -125 -375 -125
-380 0 -4 1708 -8 3795 -8 l3795 0 0 1463 c0 804 -4 1467 -8 1474 -12 18 -435
129 -452 118 -6 -4 -10 -1 -10 6 0 7 -10 9 -25 7 -13 -3 -22 -1 -19 3 3 5 -4
9 -15 9 -30 0 -114 23 -231 64 -58 21 -189 66 -292 101 -248 84 -325 118 -444
198 -132 87 -304 176 -432 223 -89 32 -115 47 -195 114 -50 43 -148 132 -217
199 -122 119 -195 179 -205 169 -5 -5 16 -73 70 -227 19 -52 25 -84 20 -108
-3 -18 -10 -31 -15 -28 -6 3 -7 -1 -4 -10 3 -8 3 -27 0 -41 -6 -21 -9 -24 -22
-13 -8 7 -12 20 -9 30 4 11 2 19 -4 19 -5 0 -13 -14 -16 -32 l-7 -32 -13 25
c-10 18 -10 26 -2 31 9 6 8 8 -2 8 -7 0 -11 6 -8 14 4 10 1 13 -7 10 -8 -3
-17 0 -21 6 -5 8 -11 8 -21 -1 -21 -17 -17 -2 5 20 11 11 27 21 38 23 14 4 12
6 -9 12 -31 9 -32 13 -18 50 6 17 6 26 0 26 -6 0 -10 7 -10 16 0 8 4 13 9 9 9
-5 13 29 11 95 -2 91 -3 109 -9 106 -3 -2 -6 16 -6 42 0 27 -5 47 -12 50 -7 2
-13 11 -13 21 0 18 -44 63 -97 99 -40 28 -46 28 -39 -5z m105 -178 c0 -5 -15
7 -34 29 -19 21 -35 43 -35 49 0 13 69 -64 69 -78z m-847 -164 c12 6 18 6 18
-1 0 -5 6 -10 14 -10 23 0 30 -21 12 -38 -15 -15 -16 -15 -16 1 0 11 5 16 13
12 6 -4 3 0 -7 9 -17 14 -20 14 -32 -2 -7 -9 -14 -15 -16 -12 -2 3 -14 18 -28
34 l-25 29 24 -16 c18 -12 29 -13 43 -6z m-437 -31 c3 -5 1 -10 -4 -10 -6 0
-11 5 -11 10 0 6 2 10 4 10 3 0 8 -4 11 -10z m84 -32 c-1 -39 -2 -41 -8 -13
-4 17 -5 36 -3 43 8 23 12 12 11 -30z m-309 -28 c-6 -12 -14 -19 -17 -17 -2 3
1 15 7 27 6 12 14 19 17 17 2 -3 -1 -15 -7 -27z m33 15 c-3 -9 -8 -14 -10 -11
-3 3 -2 9 2 15 9 16 15 13 8 -4z m-122 -58 c-10 -9 -11 -8 -5 6 3 10 9 15 12
12 3 -3 0 -11 -7 -18z m59 3 c0 -5 -5 -10 -10 -10 -6 0 -15 -12 -21 -26 -5
-15 -12 -24 -15 -21 -3 3 2 19 12 36 18 31 34 40 34 21z m-80 -94 c0 -3 -4 -8
-10 -11 -5 -3 -10 -1 -10 4 0 6 5 11 10 11 6 0 10 -2 10 -4z m1694 -21 c3 -8
1 -15 -4 -15 -5 0 -7 -8 -3 -17 3 -10 3 -15 -1 -12 -11 10 -17 59 -7 59 5 0
11 -7 15 -15z m-1775 -56 c1 8 3 12 6 9 4 -3 3 -17 0 -31 -7 -25 -40 -43 -51
-26 -3 5 4 9 15 9 12 0 21 5 21 10 0 6 -4 10 -10 10 -5 0 -6 7 -3 17 4 11 3
14 -5 9 -7 -4 -12 -3 -12 3 0 19 25 17 32 -3 3 -12 6 -15 7 -7z m1882 -22
c-10 -9 -11 -8 -5 6 3 10 9 15 12 12 3 -3 0 -11 -7 -18z m-29 -51 c-3 -34 -8
-46 -20 -46 -12 0 -13 3 -4 12 18 18 15 28 -10 29 l-23 2 23 4 c12 2 22 9 22
14 0 6 -10 9 -22 7 -17 -2 -23 -9 -22 -25 0 -13 -3 -23 -8 -23 -4 0 -8 11 -8
25 0 14 5 25 11 25 5 0 8 4 4 9 -3 5 0 13 6 17 8 4 9 3 5 -4 -5 -8 2 -12 21
-11 15 0 22 3 16 6 -7 2 -13 9 -13 15 0 7 4 7 13 0 8 -7 11 -28 9 -56z m-1822
-28 c0 -18 24 -18 42 0 14 14 28 16 28 4 0 -4 -14 -13 -31 -21 -30 -13 -33
-12 -49 9 -10 13 -16 30 -13 38 5 11 7 11 14 0 5 -7 9 -20 9 -30z m1710 32 c0
-5 -4 -10 -10 -10 -5 0 -10 5 -10 10 0 6 5 10 10 10 6 0 10 -4 10 -10z m56
-52 c4 -7 3 -8 -4 -4 -7 4 -12 2 -12 -5 0 -7 -3 -10 -6 -6 -6 5 3 27 11 27 2
0 7 -5 11 -12z m38 -34 c9 -24 7 -31 -5 -14 -8 11 -12 12 -16 2 -5 -13 -23 -7
-23 9 0 6 5 7 10 4 6 -3 10 -1 10 4 0 17 17 13 24 -5z m-1704 2 c0 -3 -4 -8
-10 -11 -5 -3 -10 -1 -10 4 0 6 5 11 10 11 6 0 10 -2 10 -4z m1739 -53 c-1
-34 -2 -35 -9 -13 -11 36 -11 50 0 50 6 0 10 -17 9 -37z m-1019 17 c0 -5 -2
-10 -4 -10 -3 0 -8 5 -11 10 -3 6 -1 10 4 10 6 0 11 -4 11 -10z m-1249 -131
c-22 -63 -40 -110 -40 -104 -1 15 70 227 75 222 2 -2 -14 -55 -35 -118z m1119
55 c-23 -60 -1 -76 23 -16 11 24 16 30 17 17 0 -17 2 -17 10 -5 7 11 10 7 10
-17 0 -27 -4 -34 -27 -39 -16 -4 -32 -12 -38 -18 -15 -18 -40 -25 -56 -15 -11
7 -10 9 5 9 15 0 16 3 6 14 -6 8 -19 12 -27 9 -10 -4 -14 -2 -10 4 4 6 21 13
39 17 l33 7 -25 14 c-14 8 -19 14 -12 15 6 0 12 7 12 15 0 9 9 15 25 15 22 0
24 -2 15 -26z m-88 -1 c-6 -2 -9 -10 -6 -15 4 -7 2 -8 -5 -4 -13 9 -5 26 12
25 9 0 8 -2 -1 -6z m-77 -33 c40 -6 43 -7 15 -8 -19 0 -57 3 -85 8 -40 6 -43
7 -15 8 19 0 58 -3 85 -8z m333 -48 c6 -18 -15 -14 -22 4 -4 10 -1 14 6 12 6
-2 14 -10 16 -16z m870 -118 c-3 -14 -5 -12 -10 9 -3 19 -2 25 4 19 6 -6 8
-18 6 -28z m-2188 22 c0 -2 -7 -9 -15 -16 -13 -11 -14 -10 -9 4 5 14 24 23 24
12z m2217 -18 c-3 -8 -6 -5 -6 6 -1 11 2 17 5 13 3 -3 4 -12 1 -19z m-2250
-40 c-3 -8 -6 -5 -6 6 -1 11 2 17 5 13 3 -3 4 -12 1 -19z m2225 -35 c-2 -12
-6 -23 -7 -23 -1 0 -5 11 -7 23 -3 14 0 24 7 24 7 0 10 -10 7 -24z m-59 -125
c20 -21 36 -46 36 -56 -1 -16 -2 -16 -6 1 -2 9 -9 15 -14 11 -5 -3 -8 -2 -7 3
4 11 -37 63 -50 63 -5 0 -13 7 -16 16 -3 8 -11 12 -17 8 -8 -4 -9 -3 -5 5 9
14 23 5 79 -51z m-2210 27 c-3 -9 -8 -14 -10 -11 -3 3 -2 9 2 15 9 16 15 13 8
-4z m31 -50 c3 -8 1 -15 -4 -15 -6 0 -10 7 -10 15 0 8 2 15 4 15 2 0 6 -7 10
-15z m-50 -59 c-8 -11 -14 -30 -15 -41 0 -12 -3 -15 -6 -6 -8 19 19 95 28 79
4 -6 1 -21 -7 -32z m2217 -61 l10 -20 -16 20 c-9 11 -21 19 -26 18 -5 -2 -9 2
-9 8 0 5 -5 7 -10 4 -6 -4 -9 -3 -8 2 2 4 -1 9 -6 10 -12 2 -26 25 -26 43 0
16 76 -55 91 -85z m-141 53 c0 -11 -12 -10 -30 2 -12 7 -10 9 8 7 12 0 22 -5
22 -9z m90 -48 c0 -5 -7 -7 -15 -4 -8 4 -15 8 -15 10 0 2 7 4 15 4 8 0 15 -4
15 -10z m30 -10 c0 -5 -5 -10 -11 -10 -5 0 -7 5 -4 10 3 6 8 10 11 10 2 0 4
-4 4 -10z m67 -27 c-3 -10 -5 -4 -5 12 0 17 2 24 5 18 2 -7 2 -21 0 -30z m-10
-105 c-3 -8 -6 -5 -6 6 -1 11 2 17 5 13 3 -3 4 -12 1 -19z m738 -263 c40 -40
29 -92 -25 -120 -67 -35 -143 0 -143 65 0 72 114 110 168 55z m-1740 -1046
c-2 -33 -6 -63 -9 -66 -9 -9 14 -43 29 -43 7 0 16 -4 19 -9 12 -19 -33 2 -56
26 -30 32 -32 101 -4 132 11 12 20 21 22 21 1 0 1 -27 -1 -61z m70 55 c40 -16
59 -113 29 -150 -15 -19 -16 -19 -9 1 15 43 17 56 11 78 -3 13 -18 36 -32 50
-28 28 -27 32 1 21z m-30 -134 c3 -5 2 -10 -4 -10 -5 0 -13 5 -16 10 -3 6 -2
10 4 10 5 0 13 -4 16 -10z m2905 -762 c0 -44 -77 -170 -148 -240 -51 -52 -198
-119 -332 -152 -170 -42 -376 -67 -620 -76 -135 -5 -316 -12 -402 -16 -184 -8
-174 -16 -129 106 l28 75 59 11 c33 6 169 21 304 33 401 37 730 92 895 152 44
16 114 49 155 73 85 49 123 64 163 65 24 1 27 -3 27 -31z"/>
<path d="M6035 2520 c-13 -21 5 -100 22 -100 13 0 15 9 10 46 -5 49 -20 74
-32 54z"/>
<path d="M5990 2486 c0 -45 9 -66 27 -66 12 0 14 7 9 31 -3 17 -6 40 -6 50 0
11 -7 19 -15 19 -10 0 -15 -10 -15 -34z"/>
<path d="M5156 4315 c-9 -26 -7 -32 5 -12 6 10 9 21 6 23 -2 3 -7 -2 -11 -11z"/>
<path d="M3635 4310 c-3 -5 -1 -10 4 -10 6 0 11 5 11 10 0 6 -2 10 -4 10 -3 0
-8 -4 -11 -10z"/>
<path d="M4119 4250 c-22 -71 -7 -88 26 -30 8 13 7 13 -10 0 -17 -14 -17 -13
-10 10 4 14 12 31 18 38 6 8 7 16 1 22 -6 6 -16 -8 -25 -40z"/>
<path d="M3645 4280 c-3 -5 -1 -10 4 -10 6 0 11 5 11 10 0 6 -2 10 -4 10 -3 0
-8 -4 -11 -10z"/>
<path d="M3670 4240 c0 -5 7 -10 16 -10 8 0 12 5 9 10 -3 6 -10 10 -16 10 -5
0 -9 -4 -9 -10z"/>
<path d="M4440 4140 c0 -6 7 -10 15 -10 8 0 15 2 15 4 0 2 -7 6 -15 10 -8 3
-15 1 -15 -4z"/>
<path d="M4290 4121 c0 -6 4 -13 10 -16 6 -3 7 1 4 9 -7 18 -14 21 -14 7z"/>
<path d="M4480 4126 c0 -2 7 -7 16 -10 8 -3 12 -2 9 4 -6 10 -25 14 -25 6z"/>
<path d="M4320 4117 c0 -2 14 -16 32 -33 31 -29 31 -29 12 -2 -16 23 -44 45
-44 35z"/>
<path d="M4780 4100 c0 -6 -6 -8 -12 -4 -7 4 3 -9 21 -29 40 -42 46 -46 31
-17 -6 11 -15 20 -20 20 -5 0 -7 6 -4 14 3 8 1 17 -5 21 -6 3 -11 1 -11 -5z"/>
<path d="M4520 4070 c0 -5 5 -10 11 -10 5 0 7 5 4 10 -3 6 -8 10 -11 10 -2 0
-4 -4 -4 -10z"/>
<path d="M5001 4054 c0 -11 3 -14 6 -6 3 7 2 16 -1 19 -3 4 -6 -2 -5 -13z"/>
<path d="M3351 4033 c7 -12 15 -20 18 -17 3 2 -3 12 -13 22 -17 16 -18 16 -5
-5z"/>
<path d="M4950 4004 c0 -3 7 -12 15 -20 16 -17 18 -14 9 10 -6 15 -24 23 -24
10z"/>
<path d="M3390 3992 c0 -4 12 -18 26 -31 l25 -24 -12 26 c-11 24 -39 45 -39
29z"/>
<path d="M4926 3975 c-3 -8 -1 -15 4 -15 6 0 10 7 10 15 0 8 -2 15 -4 15 -2 0
-6 -7 -10 -15z"/>
<path d="M3480 3940 c0 -5 -7 -7 -15 -4 -21 8 -19 -8 4 -27 17 -15 18 -15 19
12 0 16 -1 29 -4 29 -2 0 -4 -4 -4 -10z"/>
<path d="M4880 3925 c-7 -9 -11 -17 -9 -20 3 -2 10 5 17 15 14 24 10 26 -8 5z"/>
<path d="M3694 3915 c-12 -8 -24 -12 -27 -9 -3 3 -8 1 -11 -4 -3 -5 3 -12 14
-15 13 -3 24 3 35 19 18 28 17 29 -11 9z"/>
<path d="M3500 3904 c0 -11 7 -29 15 -40 19 -26 20 1 0 36 -13 23 -14 23 -15
4z"/>
<path d="M3531 3904 c0 -11 3 -14 6 -6 3 7 2 16 -1 19 -3 4 -6 -2 -5 -13z"/>
<path d="M5410 3891 c0 -10 19 -25 25 -20 1 2 -3 10 -11 17 -8 7 -14 8 -14 3z"/>
<path d="M3571 3874 c0 -11 3 -14 6 -6 3 7 2 16 -1 19 -3 4 -6 -2 -5 -13z"/>
<path d="M5410 3820 c0 -5 5 -10 10 -10 6 0 10 5 10 10 0 6 -4 10 -10 10 -5 0
-10 -4 -10 -10z"/>
<path d="M5510 3814 c0 -8 5 -12 10 -9 6 3 10 10 10 16 0 5 -4 9 -10 9 -5 0
-10 -7 -10 -16z"/>
<path d="M3545 3809 c-4 -6 -5 -12 -2 -15 2 -3 7 2 10 11 7 17 1 20 -8 4z"/>
<path d="M5496 3743 c-6 -14 -5 -15 5 -6 7 7 10 15 7 18 -3 3 -9 -2 -12 -12z"/>
<path d="M4720 3722 c0 -5 7 -15 15 -22 8 -7 15 -8 15 -2 0 5 -7 15 -15 22 -8
7 -15 8 -15 2z"/>
<path d="M4656 3631 c-4 -7 -5 -15 -2 -18 9 -9 19 4 14 18 -4 11 -6 11 -12 0z"/>
<path d="M4885 3580 c3 -5 8 -10 11 -10 2 0 4 5 4 10 0 6 -5 10 -11 10 -5 0
-7 -4 -4 -10z"/>
<path d="M4830 3560 c8 -5 20 -10 25 -10 6 0 3 5 -5 10 -8 5 -19 10 -25 10 -5
0 -3 -5 5 -10z"/>
<path d="M4605 3550 c-3 -5 3 -10 14 -10 15 0 19 -5 15 -17 -5 -15 -4 -15 6 1
10 15 9 20 -1 27 -18 11 -26 11 -34 -1z"/>
<path d="M4592 3521 c-9 -5 -10 -14 -3 -32 8 -20 10 -21 16 -7 10 25 2 49 -13
39z"/>
<path d="M4750 3500 c0 -5 5 -10 11 -10 5 0 7 5 4 10 -3 6 -8 10 -11 10 -2 0
-4 -4 -4 -10z"/>
<path d="M4620 3480 c0 -8 5 -22 10 -30 9 -13 10 -13 10 0 0 8 -5 22 -10 30
-9 13 -10 13 -10 0z"/>
<path d="M4556 3457 c3 -10 9 -15 12 -12 3 3 0 11 -7 18 -10 9 -11 8 -5 -6z"/>
<path d="M4650 3450 c0 -5 5 -10 10 -10 6 0 10 5 10 10 0 6 -4 10 -10 10 -5 0
-10 -4 -10 -10z"/>
</g>
</svg>
