<?xml version="1.0" standalone="no"?>
<!DOCTYPE svg PUBLIC "-//W3C//DTD SVG 20010904//EN"
 "http://www.w3.org/TR/2001/REC-SVG-20010904/DTD/svg10.dtd">
<svg version="1.0" xmlns="http://www.w3.org/2000/svg"
 width="800.000000pt" height="800.000000pt" viewBox="0 0 800.000000 800.000000"
 preserveAspectRatio="xMidYMid meet">

<g transform="translate(0.000000,800.000000) scale(0.100000,-0.100000)"
fill="#000000" stroke="none">
<path d="M3935 7662 c-22 -2 -45 -8 -51 -13 -6 -5 -18 -7 -25 -4 -34 12 -166
10 -204 -4 -22 -7 -60 -18 -85 -22 -90 -16 -166 -42 -220 -77 -30 -19 -75 -41
-100 -47 -59 -16 -150 -57 -150 -67 0 -4 -9 -8 -20 -8 -11 0 -20 -5 -20 -11 0
-5 -4 -8 -9 -4 -6 3 -25 -8 -43 -23 -38 -34 -172 -122 -185 -122 -9 0 -32 -23
-131 -130 -74 -80 -114 -143 -105 -166 3 -8 1 -20 -5 -27 -5 -6 -12 -25 -15
-42 -3 -16 -12 -70 -21 -120 -12 -67 -21 -94 -36 -105 -18 -14 -20 -20 -10
-45 6 -17 22 -41 35 -55 24 -25 28 -61 7 -68 -7 -2 -12 -16 -12 -30 0 -16 -8
-32 -20 -40 -15 -9 -18 -17 -11 -34 12 -34 6 -144 -8 -162 -7 -9 -11 -22 -8
-30 3 -7 2 -17 -3 -22 -5 -5 -10 -26 -12 -47 -1 -21 -6 -41 -10 -43 -4 -3 -5
-16 -2 -29 3 -13 0 -34 -7 -46 -8 -16 -13 -96 -15 -254 -4 -216 3 -310 26
-360 9 -20 28 -144 34 -225 1 -25 6 -84 11 -132 8 -96 5 -101 -45 -73 -14 8
-42 14 -64 15 -30 0 -45 -7 -72 -34 -33 -33 -34 -36 -28 -93 3 -32 17 -103 31
-158 38 -151 44 -199 52 -465 6 -173 12 -256 22 -281 28 -71 123 -158 174
-159 11 0 25 -4 32 -8 6 -4 21 -75 32 -158 11 -83 24 -162 29 -175 17 -44 32
-95 32 -109 0 -7 15 -45 34 -84 18 -39 37 -82 41 -96 4 -14 20 -44 36 -68 16
-24 36 -57 45 -75 15 -28 27 -46 73 -103 32 -40 36 -56 57 -281 16 -172 16
-173 -5 -199 -14 -18 -19 -34 -15 -51 6 -21 -5 -36 -73 -101 -51 -50 -89 -97
-108 -134 -19 -40 -34 -58 -47 -58 -11 0 -16 -4 -13 -10 3 -5 0 -10 -8 -10 -8
0 -17 -14 -21 -31 -9 -45 -8 -49 10 -49 13 0 15 -7 10 -36 -4 -19 -3 -41 3
-47 5 -7 12 -34 15 -62 3 -27 12 -53 19 -57 8 -4 14 -23 15 -43 1 -37 17 -106
31 -140 31 -73 95 -194 114 -217 12 -14 37 -45 56 -68 19 -23 44 -46 55 -51
12 -5 48 -27 81 -49 118 -78 285 -149 415 -177 174 -37 470 -19 669 42 175 53
368 134 324 135 -15 0 -21 5 -17 14 3 9 -3 17 -15 21 -12 3 -21 14 -21 23 0
15 2 15 10 2 7 -11 10 -7 10 18 0 46 -1 47 -42 44 -29 -2 -38 2 -38 14 0 13
-9 15 -46 12 -39 -3 -44 -1 -40 14 2 10 0 18 -5 18 -5 0 -9 17 -9 39 0 23 -6
44 -16 52 -12 10 -14 25 -11 63 6 62 29 169 37 176 3 3 11 17 17 32 11 25 11
28 -7 28 -22 0 -18 23 11 54 14 14 15 24 8 44 -8 20 -6 29 12 49 13 12 29 23
36 23 8 0 39 11 69 25 30 14 61 25 69 25 7 0 17 5 20 10 3 6 14 10 23 10 9 0
28 12 41 25 13 14 26 23 29 20 3 -3 11 4 19 15 8 11 20 20 26 20 7 1 21 12 32
27 11 14 28 33 38 42 17 15 47 63 47 76 0 13 -25 3 -45 -19 -21 -22 -27 -24
-60 -15 -20 6 -38 16 -41 24 -4 9 -12 6 -30 -12 -13 -13 -24 -28 -24 -33 0 -6
-10 -10 -22 -10 -17 0 -19 3 -10 12 16 16 15 25 -4 32 -18 7 -59 -28 -50 -43
4 -5 -2 -15 -12 -20 -21 -11 -42 2 -42 26 0 17 -40 16 -64 -2 -28 -21 -36 -19
-36 10 0 49 -50 110 -82 99 -27 -8 -49 13 -42 41 4 17 -2 28 -24 44 -17 11
-35 21 -41 21 -6 0 -11 5 -11 10 0 6 -7 10 -15 10 -8 0 -19 9 -25 20 -6 11
-17 20 -25 20 -8 0 -15 9 -15 20 0 11 -7 20 -15 20 -8 0 -15 9 -15 20 0 25 17
26 23 3 4 -15 5 -16 6 -2 1 19 53 33 62 17 4 -6 31 -11 62 -12 30 -1 61 -7 68
-13 8 -6 30 -13 49 -15 30 -3 35 0 38 20 4 30 -31 70 -66 74 -40 5 -36 36 9
80 52 52 51 82 -3 86 -30 3 -38 7 -38 23 0 10 -4 19 -10 19 -5 0 -10 -6 -10
-14 0 -9 -7 -12 -20 -9 -25 7 -25 11 2 34 21 19 21 19 -44 19 -74 0 -106 15
-86 42 15 19 54 25 81 13 10 -4 28 -3 40 3 12 6 36 15 52 20 17 5 30 15 30 22
0 23 -46 27 -107 11 -56 -15 -58 -14 -81 7 -13 12 -27 19 -30 15 -4 -3 -7 -2
-7 4 0 6 7 13 15 17 8 3 15 12 15 20 0 9 12 19 28 22 15 4 32 11 38 16 44 34
241 54 422 43 107 -7 114 -8 124 -31 7 -14 20 -24 32 -24 16 0 18 -3 7 -9 -19
-12 -3 -18 64 -20 33 -2 63 -7 66 -13 11 -17 76 -36 91 -27 9 6 13 33 11 99
-1 80 -4 96 -27 131 -15 22 -31 37 -36 34 -5 -3 -15 3 -22 13 -7 11 -22 22
-33 26 -20 6 -45 47 -45 73 0 7 -4 13 -10 13 -5 0 -10 -12 -10 -26 0 -23 -3
-25 -37 -24 -21 1 -43 2 -49 1 -11 -1 -22 -36 -27 -83 -1 -9 -5 -15 -9 -12 -4
2 -10 -2 -15 -10 -4 -8 -19 -19 -32 -24 -25 -9 -33 -8 -206 35 -84 20 -139 27
-233 29 -170 3 -268 27 -297 71 -18 27 -17 38 12 120 21 61 52 93 88 93 22 0
25 -3 19 -25 -4 -15 -1 -32 6 -40 10 -12 9 -15 -4 -15 -19 0 -19 -1 -6 -34 6
-16 17 -26 29 -26 11 0 23 -4 26 -10 9 -14 55 -8 55 7 0 8 11 18 24 23 13 5
27 14 31 19 3 6 15 11 27 11 16 0 19 5 14 23 -3 12 -6 28 -6 36 0 9 -4 10 -12
4 -9 -6 -22 0 -43 19 -16 15 -24 28 -17 28 6 0 12 9 12 20 0 11 6 20 13 20 8
0 19 10 25 23 l11 22 0 -24 c1 -25 11 -25 96 -5 35 8 125 73 125 90 0 7 11 22
24 35 25 24 25 49 0 49 -8 0 -14 5 -14 10 0 6 -6 10 -14 10 -7 0 -19 6 -25 14
-32 39 -163 17 -214 -35 -31 -33 -43 -35 -71 -14 -11 8 -30 15 -43 15 -13 0
-31 12 -45 30 -12 16 -30 33 -41 36 -21 7 -64 94 -68 140 -4 39 11 144 21 144
5 0 13 14 19 30 7 21 7 30 -1 30 -6 0 -8 12 -3 33 3 17 8 51 10 74 2 24 7 48
10 53 7 12 21 127 35 285 8 100 23 196 34 233 4 11 2 39 -5 63 -6 24 -11 59
-12 77 0 17 -4 32 -9 32 -5 0 -5 12 -2 26 4 17 3 25 -3 21 -6 -4 -18 2 -28 13
-10 11 -24 20 -31 20 -14 0 -64 43 -64 54 0 11 -33 42 -52 49 -10 4 -18 13
-18 22 0 8 -7 15 -15 15 -15 0 -45 48 -45 72 0 17 -64 58 -90 58 -14 0 -20 7
-20 23 0 20 -4 22 -39 19 -35 -4 -40 -1 -43 20 -3 25 -28 28 -93 12 -16 -3
-27 -3 -23 1 4 4 1 14 -7 22 -8 8 -15 25 -15 39 0 26 -9 31 -28 12 -9 -9 -15
-9 -24 0 -10 10 -8 14 10 19 20 5 23 11 20 47 -3 36 0 41 20 44 12 2 22 10 22
18 0 8 6 14 13 14 9 0 8 3 -2 9 -11 7 -7 15 17 40 39 41 47 71 21 78 -10 3
-19 14 -19 24 0 14 7 19 28 19 16 0 35 9 46 21 13 16 25 20 47 15 25 -5 30 -3
27 12 -1 9 6 30 17 46 19 28 19 28 -3 45 -25 19 -42 109 -22 121 7 5 9 20 5
43 -7 36 -7 36 -32 20 -37 -25 -50 -2 -13 25 35 26 39 42 10 42 -29 0 -25 17
5 22 22 5 25 2 25 -23 0 -40 20 -37 21 4 1 23 3 26 6 10 6 -31 15 -29 36 9 15
26 20 29 28 17 6 -9 12 -10 17 -4 12 16 42 17 42 1 0 -8 4 -18 10 -21 14 -9
66 24 80 51 11 19 23 23 94 29 121 9 136 13 136 37 0 20 4 21 101 15 69 -3
105 -10 110 -19 8 -11 11 -11 18 1 7 11 20 12 72 3 35 -6 85 -14 111 -17 38
-5 46 -9 41 -22 -5 -14 -1 -15 26 -10 24 5 30 4 25 -6 -6 -9 -4 -9 8 0 12 11
18 9 33 -7 10 -11 30 -20 45 -20 15 0 43 -3 61 -7 33 -7 33 -7 9 -15 -15 -4
-7 -5 20 -1 28 3 50 13 58 25 13 18 15 17 44 -19 16 -21 36 -50 43 -64 8 -14
31 -37 52 -52 21 -15 49 -43 63 -62 15 -20 34 -35 46 -35 12 0 27 -7 35 -16 8
-10 23 -14 41 -12 23 4 33 -1 49 -23 10 -15 19 -34 19 -42 0 -9 5 -19 10 -22
10 -6 68 9 103 27 21 10 37 3 37 -18 0 -8 7 -14 15 -14 18 0 30 -24 39 -75 9
-55 37 -117 51 -111 6 2 17 -10 24 -26 8 -17 22 -33 32 -35 17 -5 24 -22 20
-46 -1 -5 7 -23 18 -40 11 -18 23 -50 27 -72 l8 -40 7 35 c4 19 8 85 8 145 0
61 3 137 6 170 3 33 2 80 -4 105 -7 31 -7 48 1 57 7 9 7 21 0 40 -6 16 -10 54
-11 86 0 32 -4 63 -8 69 -7 12 -10 32 -16 108 -2 25 -9 56 -15 70 -5 14 -6 29
-2 34 10 10 7 20 -31 103 -16 35 -31 84 -34 110 -3 26 -11 50 -17 54 -6 4 -7
12 -4 18 4 6 2 11 -3 11 -6 0 -10 3 -9 8 1 4 -4 21 -11 37 -11 24 -11 42 -1
89 6 32 8 62 3 65 -4 3 -17 23 -27 43 -10 21 -27 40 -37 43 -10 3 -41 34 -70
68 -48 58 -97 96 -127 97 -13 0 -95 63 -169 129 -23 21 -61 46 -83 57 -22 10
-40 22 -40 26 0 4 -18 13 -40 19 -32 10 -40 17 -40 36 0 17 -8 26 -27 33 -16
5 -39 16 -53 25 -14 8 -41 22 -60 31 -19 9 -43 23 -53 32 -10 9 -44 20 -75 23
-72 9 -155 30 -163 42 -3 5 -26 11 -50 14 -24 3 -49 10 -55 14 -11 9 -275 17
-349 11z m-615 -2812 c0 -5 -4 -10 -10 -10 -5 0 -10 5 -10 10 0 6 5 10 10 10
6 0 10 -4 10 -10z m174 -28 c3 -5 -4 -16 -14 -25 -13 -11 -20 -12 -23 -4 -9
27 22 52 37 29z m-216 -471 c3 -27 0 -32 -15 -29 -19 3 -28 30 -19 54 10 26
31 10 34 -25z m210 -31 c3 -9 -2 -11 -22 -6 -25 6 -26 5 -26 -34 0 -39 -1 -40
-34 -40 -25 0 -38 6 -51 26 -16 25 -16 26 5 31 16 4 18 8 9 14 -19 11 -4 23
33 25 18 1 34 7 36 14 5 13 43 -9 50 -30z m-138 -85 c-10 -12 -10 -19 -2 -27
9 -9 12 -9 12 0 0 23 30 12 36 -14 5 -20 11 -24 29 -20 19 5 24 1 29 -20 8
-32 1 -44 -9 -15 -6 21 -25 29 -25 11 0 -5 -7 -10 -15 -10 -8 0 -26 -23 -40
-52 -30 -61 -28 -55 -10 -62 26 -10 45 5 45 34 0 20 6 31 21 35 31 10 35 -2 9
-30 -19 -21 -21 -25 -7 -25 9 0 17 5 17 10 0 6 13 10 29 10 37 0 58 -46 35
-78 -9 -13 -11 -23 -4 -27 15 -9 12 -48 -6 -73 -8 -12 -12 -27 -9 -32 3 -6 0
-10 -8 -10 -8 0 -17 -10 -21 -22 -5 -18 -8 -20 -15 -9 -5 7 -14 11 -20 7 -6
-4 -21 0 -33 8 -13 8 -27 15 -33 15 -5 1 -11 20 -13 43 -2 24 -10 50 -18 59
-8 8 -11 18 -8 22 3 3 -2 19 -12 34 -11 15 -23 35 -29 44 -5 9 -18 28 -29 43
-17 25 -17 28 -2 45 9 9 16 23 16 29 0 6 14 19 30 29 17 9 30 25 30 33 0 21 9
30 28 30 12 0 12 -3 2 -15z m-75 -15 c3 -5 1 -10 -4 -10 -6 0 -11 5 -11 10 0
6 2 10 4 10 3 0 8 -4 11 -10z m225 -10 c0 -5 -4 -10 -10 -10 -5 0 -10 5 -10
10 0 6 5 10 10 10 6 0 10 -4 10 -10z m-100 -459 c0 -5 -9 -7 -20 -4 -11 3 -20
7 -20 9 0 2 9 4 20 4 11 0 20 -4 20 -9z m646 -752 c13 -22 -12 -30 -31 -9 -18
19 -18 20 3 20 11 0 24 -5 28 -11z m14 -123 c0 -3 -4 -8 -10 -11 -5 -3 -10 -1
-10 4 0 6 5 11 10 11 6 0 10 -2 10 -4z m237 -1498 c-3 -8 -6 -5 -6 6 -1 11 2
17 5 13 3 -3 4 -12 1 -19z"/>
<path d="M3260 4131 c0 -6 5 -13 10 -16 6 -3 10 1 10 9 0 9 -4 16 -10 16 -5 0
-10 -4 -10 -9z"/>
<path d="M3380 4009 c0 -5 5 -7 10 -4 6 3 10 8 10 11 0 2 -4 4 -10 4 -5 0 -10
-5 -10 -11z"/>
<path d="M3675 6220 c3 -5 10 -10 16 -10 5 0 9 5 9 10 0 6 -7 10 -16 10 -8 0
-12 -4 -9 -10z"/>
<path d="M3711 6024 c0 -11 3 -14 6 -6 3 7 2 16 -1 19 -3 4 -6 -2 -5 -13z"/>
<path d="M3752 5939 c2 -7 10 -15 17 -17 8 -3 12 1 9 9 -2 7 -10 15 -17 17 -8
3 -12 -1 -9 -9z"/>
<path d="M3675 5930 c-3 -5 1 -10 10 -10 9 0 13 5 10 10 -3 6 -8 10 -10 10 -2
0 -7 -4 -10 -10z"/>
<path d="M3535 5790 c3 -5 10 -10 16 -10 5 0 9 5 9 10 0 6 -7 10 -16 10 -8 0
-12 -4 -9 -10z"/>
<path d="M4825 5450 c-13 -14 -29 -20 -50 -18 -16 1 -55 -5 -85 -13 -30 -9
-82 -22 -115 -29 -33 -7 -67 -19 -76 -27 -8 -7 -20 -13 -25 -13 -5 0 -16 -15
-25 -33 -11 -22 -28 -36 -57 -46 -25 -9 -43 -23 -46 -35 -4 -15 -8 -17 -14 -9
-5 9 -12 1 -21 -23 -7 -20 -27 -49 -44 -64 -30 -26 -30 -28 -10 -38 19 -10 20
-21 22 -139 1 -92 5 -131 15 -138 7 -5 21 -23 30 -40 70 -124 117 -157 233
-161 52 -2 96 -9 116 -19 25 -13 63 -16 174 -16 79 0 147 2 153 6 7 4 7 12 0
25 -13 25 -2 70 16 70 8 0 19 11 25 24 6 13 23 29 37 35 43 20 11 33 -35 15
-23 -9 -49 -14 -58 -10 -13 5 -12 11 9 43 13 21 30 53 37 71 12 28 18 32 53
32 34 0 38 -2 33 -21 -5 -19 -2 -21 23 -16 17 4 41 0 59 -9 21 -11 39 -12 62
-6 42 10 46 25 12 41 -19 9 -23 15 -15 20 10 6 9 11 -3 21 -10 8 -15 9 -15 1
0 -19 -28 -12 -53 13 -29 29 -119 76 -146 76 -16 0 -31 18 -31 37 0 3 22 3 49
0 62 -7 121 -37 155 -77 24 -29 26 -30 26 -10 0 19 4 21 31 15 26 -6 30 -4 27
11 -3 16 -52 59 -102 89 -9 6 -19 25 -22 43 -5 25 -3 32 10 32 9 0 16 5 16 11
0 11 19 10 110 -6 28 -5 39 -2 54 14 11 12 14 21 8 21 -7 0 -12 7 -12 15 0 9
9 15 22 15 12 0 18 3 15 7 -4 3 0 14 8 23 14 15 13 20 -7 46 -12 16 -29 35
-38 41 -71 58 -108 83 -122 83 -9 0 -21 7 -25 15 -11 20 -48 22 -105 6 -34
-10 -55 -10 -80 -3 -18 6 -67 14 -108 17 -69 6 -77 5 -95 -15z"/>
<path d="M5649 4913 c-35 -37 -49 -66 -49 -100 0 -39 32 -173 42 -173 4 0 17
19 29 43 28 53 39 211 17 240 -13 17 -15 16 -39 -10z"/>
<path d="M4902 2943 c2 -22 9 -29 31 -31 20 -3 27 1 27 14 0 12 -6 15 -26 11
-21 -4 -25 -1 -21 14 3 11 1 19 -5 19 -5 0 -8 -12 -6 -27z"/>
<path d="M4904 2875 c-4 -8 -10 -12 -15 -9 -5 3 -9 -2 -9 -10 0 -9 9 -16 20
-16 11 0 20 6 20 13 0 8 10 19 23 25 22 10 21 11 -6 11 -16 1 -30 -5 -33 -14z"/>
<path d="M4818 2823 c-38 -43 -29 -85 10 -46 16 16 17 16 20 0 2 -10 13 -17
28 -17 28 0 28 1 12 35 -6 14 -19 25 -29 25 -9 0 -19 5 -21 11 -2 6 -10 3 -20
-8z"/>
<path d="M4814 2665 c-5 -12 -3 -20 5 -23 11 -4 11 -6 0 -13 -11 -7 -10 -9 4
-9 19 0 23 26 7 50 -7 12 -10 11 -16 -5z"/>
<path d="M4465 2610 c3 -6 0 -13 -9 -16 -25 -10 -28 -34 -3 -34 29 0 57 19 40
27 -7 2 -13 11 -13 19 0 8 -5 14 -11 14 -5 0 -7 -5 -4 -10z"/>
<path d="M5090 2452 c0 -17 15 -45 41 -77 64 -77 69 -92 70 -212 1 -88 3 -99
10 -63 4 25 8 82 8 127 1 89 -17 143 -73 216 -34 44 -56 48 -56 9z"/>
<path d="M2551 2078 c-8 -50 -10 -286 -2 -298 16 -24 24 -3 12 31 -20 58 -11
175 20 257 7 18 5 22 -10 22 -10 0 -19 -6 -20 -12z"/>
<path d="M2687 1803 c-13 -12 -7 -23 13 -23 11 0 20 7 20 15 0 15 -21 21 -33
8z"/>
<path d="M2562 1730 c0 -19 2 -27 5 -17 2 9 2 25 0 35 -3 9 -5 1 -5 -18z"/>
<path d="M550 1315 c-7 -9 -8 -15 -2 -15 5 0 12 7 16 15 3 8 4 15 2 15 -2 0
-9 -7 -16 -15z"/>
<path d="M4512 1300 c0 -14 2 -19 5 -12 2 6 2 18 0 25 -3 6 -5 1 -5 -13z"/>
<path d="M467 1199 c-26 -29 -47 -56 -47 -60 0 -5 -4 -9 -10 -9 -5 0 -10 -6
-10 -13 0 -8 -11 -24 -24 -36 -14 -13 -30 -36 -36 -52 -7 -16 -17 -29 -22 -29
-6 0 -8 -7 -5 -15 4 -8 1 -17 -5 -21 -7 -4 -8 -3 -4 4 4 7 5 12 3 12 -2 0 -15
-17 -29 -37 -92 -140 -118 -182 -118 -189 0 -4 -8 -17 -18 -28 -24 -27 -75
-116 -66 -116 4 0 -5 -9 -19 -20 -14 -11 -32 -20 -41 -20 -14 0 -16 -31 -16
-285 l0 -285 124 0 123 0 -14 53 c-8 28 -18 66 -23 83 -4 18 -11 37 -15 44 -4
7 -2 16 6 20 11 7 10 18 -3 62 -20 67 -15 223 7 248 8 9 15 31 15 49 0 51 32
100 67 102 15 0 14 2 -4 9 -28 11 -31 50 -5 50 14 0 22 16 36 74 10 40 16 78
12 84 -3 6 -2 13 4 17 5 3 10 20 10 36 0 46 21 119 34 116 6 -1 11 5 11 15 0
20 34 58 52 58 7 0 13 9 13 20 0 12 4 26 10 33 75 92 78 104 7 26z"/>
<path d="M473 780 c0 -25 2 -35 4 -22 2 12 2 32 0 45 -2 12 -4 2 -4 -23z"/>
<path d="M456 645 c-3 -8 -1 -38 4 -65 5 -28 7 -76 5 -107 -3 -30 0 -73 7 -94
13 -44 6 -59 -17 -36 -8 9 -31 21 -50 28 -19 7 -35 19 -35 26 0 14 -26 18 -34
5 -2 -4 1 -28 6 -54 9 -38 17 -49 40 -57 17 -6 28 -17 28 -29 0 -11 13 -25 34
-34 33 -16 53 -53 35 -64 -5 -3 -6 -16 -3 -29 4 -16 -1 -36 -15 -58 -20 -33
-20 -35 -2 -56 15 -17 30 -21 75 -21 l56 0 -5 58 c-6 62 -15 132 -22 172 -3
14 -6 34 -7 45 -3 24 -22 92 -43 155 -8 25 -17 60 -19 79 -3 19 -9 53 -14 77
-5 23 -7 50 -4 58 3 9 2 16 -4 16 -5 0 -12 -7 -16 -15z"/>
<path d="M2575 590 c-3 -5 1 -10 9 -10 9 0 16 5 16 10 0 6 -4 10 -9 10 -6 0
-13 -4 -16 -10z"/>
<path d="M280 530 c0 -5 5 -10 11 -10 5 0 7 5 4 10 -3 6 -8 10 -11 10 -2 0 -4
-4 -4 -10z"/>
<path d="M280 420 c0 -11 2 -20 4 -20 2 0 11 -3 20 -6 12 -5 16 0 16 20 0 19
-5 26 -20 26 -13 0 -20 -7 -20 -20z"/>
<path d="M383 234 c-3 -8 -1 -25 5 -37 10 -20 11 -18 11 16 1 39 -5 48 -16 21z"/>
<path d="M1152 110 c-6 -22 -12 -47 -12 -56 0 -10 -5 -14 -15 -10 -17 6 -21
-9 -5 -19 6 -4 8 -11 5 -16 -4 -5 3 -9 14 -9 18 0 21 6 21 40 0 22 5 48 11 59
8 11 8 24 3 34 -8 13 -12 8 -22 -23z"/>
<path d="M413 133 c9 -2 25 -2 35 0 9 3 1 5 -18 5 -19 0 -27 -2 -17 -5z"/>
</g>
</svg>
