<?xml version="1.0" standalone="no"?>
<!DOCTYPE svg PUBLIC "-//W3C//DTD SVG 20010904//EN"
 "http://www.w3.org/TR/2001/REC-SVG-20010904/DTD/svg10.dtd">
<svg version="1.0" xmlns="http://www.w3.org/2000/svg"
 width="3840.000000pt" height="4734.000000pt" viewBox="0 0 3840.000000 4734.000000"
 preserveAspectRatio="xMidYMid meet">

<g transform="translate(0.000000,4734.000000) scale(0.100000,-0.100000)"
fill="#000000" stroke="none">
<path d="M0 23670 l0 -23670 19200 0 19200 0 0 23670 0 23670 -19200 0 -19200
0 0 -23670z m19353 1665 c972 -69 1810 -292 2652 -705 702 -345 1292 -768
1856 -1330 393 -392 675 -740 963 -1188 204 -319 431 -750 562 -1071 l59 -143
75 -38 c100 -50 183 -114 269 -206 l71 -76 32 20 c62 39 281 133 401 172 66
22 176 52 246 67 111 24 148 27 311 27 219 0 313 -15 464 -75 132 -53 228
-113 329 -209 182 -172 301 -387 405 -730 7 -24 10 -25 107 -26 127 -1 245
-13 245 -26 0 -5 -5 -6 -11 -2 -8 4 -9 0 -4 -15 4 -12 2 -21 -4 -21 -6 0 -11
9 -11 20 0 11 -6 20 -14 20 -8 0 -21 3 -30 6 -15 6 -16 -72 -16 -834 0 -604 3
-843 11 -848 8 -4 7 -9 -2 -16 -15 -10 -15 -11 39 6 13 5 22 3 22 -3 0 -6 -12
-13 -27 -17 -16 -3 -51 -11 -80 -18 -29 -7 -50 -9 -47 -5 2 5 -8 2 -23 -6 -15
-8 -66 -27 -113 -41 -118 -36 -268 -97 -380 -153 l-95 -48 -39 28 c-21 16 -43
26 -49 22 -5 -3 -7 -2 -4 4 3 5 -7 19 -23 31 -26 20 -30 20 -44 6 -9 -8 -16
-20 -16 -25 0 -6 7 -3 16 5 8 9 16 16 17 16 1 0 1 -591 -1 -1314 l-2 -1315 27
-4 c16 -2 -3 -5 -42 -6 -165 -4 -311 -33 -450 -92 -155 -64 -260 -134 -393
-261 -63 -60 -72 -76 -212 -355 l-147 -293 76 -2 c42 -1 -122 -5 -364 -9 -871
-15 -1503 -85 -2282 -255 -285 -62 -481 -115 -1008 -274 -827 -250 -1176 -316
-1761 -337 l-191 -6 -12 79 c-43 301 -62 906 -42 1354 11 236 14 268 32 290
86 111 140 338 169 699 19 247 11 838 -15 1121 -37 408 -76 697 -136 1005
-100 519 -181 756 -339 989 -124 183 -139 247 -147 626 -6 289 9 473 46 556
39 88 57 65 116 -151 61 -222 129 -405 220 -590 80 -164 148 -271 261 -413
127 -157 126 -154 143 -462 l11 -184 -40 -41 c-58 -59 -83 -123 -88 -226 -4
-72 -1 -94 17 -133 29 -66 72 -118 144 -174 69 -53 259 -152 292 -152 60 0
198 133 249 240 l31 65 0 255 c0 273 -7 332 -61 517 -28 99 -88 231 -133 299
-30 44 -31 48 -31 164 0 409 -144 813 -409 1148 l-42 52 -3 153 c-4 174 -23
289 -70 432 l-33 99 28 121 c49 208 57 462 18 607 -32 121 -138 258 -252 327
-109 65 -264 111 -374 111 -108 0 -234 90 -470 334 l-153 158 31 44 c67 98
121 253 160 458 29 152 39 574 16 683 -41 194 -157 313 -350 363 -104 26 -244
34 -346 20 -193 -27 -314 -110 -373 -258 -20 -50 -23 -76 -23 -203 -1 -130 -4
-149 -22 -175 -98 -138 -108 -285 -27 -391 l26 -35 -22 -119 c-21 -115 -23
-120 -59 -149 -51 -39 -125 -76 -197 -96 -89 -25 -305 -30 -439 -10 -97 14
-388 84 -359 85 24 2 104 83 104 105 0 34 -34 58 -89 64 -65 6 -111 -11 -173
-64 -82 -70 -114 -58 -174 66 -20 41 -46 86 -58 98 -21 23 -21 29 -21 396 0
339 -2 374 -18 399 -33 51 -126 25 -164 -45 -15 -28 -18 -60 -19 -218 0 -143
-4 -198 -18 -242 -9 -32 -21 -58 -26 -58 -18 0 -38 45 -95 210 -95 273 -157
385 -230 416 -81 34 -147 -41 -146 -167 0 -57 20 -119 100 -312 53 -127 91
-277 71 -277 -6 0 -62 80 -127 178 -132 202 -250 332 -316 350 -85 24 -127
-23 -127 -143 0 -110 39 -186 175 -339 114 -129 125 -155 85 -191 -22 -20 -13
-25 -116 61 -209 175 -387 252 -444 192 -43 -47 -10 -129 95 -233 66 -67 256
-212 334 -256 34 -19 38 -26 57 -107 40 -167 142 -371 256 -513 38 -47 48 -67
48 -97 1 -127 83 -273 202 -353 180 -123 372 -168 741 -176 l237 -5 0 -48 c0
-140 44 -444 86 -586 38 -132 77 -219 164 -364 43 -72 92 -164 109 -204 68
-163 97 -432 85 -789 l-7 -219 -49 -141 c-213 -609 -314 -933 -413 -1332 -128
-515 -209 -991 -240 -1400 -3 -44 -8 -100 -11 -125 -2 -25 -9 -196 -14 -381
-11 -411 -15 -429 -99 -471 -66 -34 -89 -54 -151 -138 -133 -180 -281 -535
-360 -860 -60 -251 -73 -423 -46 -640 25 -201 13 -753 -20 -902 -7 -33 2 -32
-133 -12 -231 34 -447 99 -648 194 -146 70 -229 119 -509 301 -343 223 -499
306 -711 375 -211 69 -398 94 -702 94 -167 0 -515 -18 -671 -35 -137 -14 -505
-27 -635 -21 -282 12 -409 38 -753 150 -125 40 -270 83 -322 95 -52 12 -111
26 -130 32 -61 17 -278 23 -390 10 -216 -25 -642 -149 -902 -262 -70 -31 -101
-38 -55 -13 15 8 27 19 27 24 0 5 6 8 13 6 6 -1 8 -1 4 2 -4 2 -3 10 4 18 6 8
8 14 4 14 -4 0 -15 -10 -26 -23 -10 -12 -18 -17 -19 -10 0 6 5 15 11 18 6 4 8
13 5 21 -3 8 0 11 10 7 12 -5 14 151 12 1233 -2 682 -7 1247 -12 1257 -6 13
-5 16 7 11 8 -3 18 0 22 6 3 6 3 10 -2 9 -9 -3 -65 22 -73 32 -3 3 -40 22 -83
43 -131 63 -329 119 -464 132 -40 3 -77 12 -83 19 -7 9 -10 433 -10 1329 0
820 -3 1316 -9 1316 -5 0 -21 -4 -35 -10 -15 -5 -28 -5 -31 0 -9 14 102 25
255 24 173 -1 290 -28 435 -97 164 -79 353 -244 442 -383 26 -41 53 -81 58
-88 8 -12 25 -11 100 5 109 23 272 25 370 4 144 -30 296 -129 381 -248 21 -28
39 -54 41 -56 1 -2 31 23 66 56 35 33 95 80 134 106 l70 47 7 118 c8 150 39
412 71 611 125 768 395 1547 770 2226 328 595 709 1101 1194 1585 404 404 794
714 1261 1004 991 617 2101 969 3290 1045 220 14 630 12 853 -4z m-293 -2061
c47 -14 88 -28 92 -31 12 -7 -14 -63 -30 -63 -13 0 -233 68 -239 74 -1 1 6 16
17 34 17 28 22 30 47 22 15 -4 66 -21 113 -36z m625 -61 c-4 -21 -8 -39 -8
-39 -1 -1 -57 -5 -124 -9 l-123 -7 0 41 0 40 93 4 c50 1 109 4 131 5 l38 2 -7
-37z m-2654 -316 c55 -37 79 -81 79 -147 0 -43 -6 -65 -22 -90 -41 -59 -72
-75 -148 -75 -76 0 -107 16 -147 75 -32 46 -32 134 0 181 37 55 81 79 147 79
43 0 65 -6 91 -23z m2689 -937 c258 -11 350 -19 350 -28 0 -11 -311 -382 -320
-382 -9 0 -460 419 -460 427 0 3 44 2 98 -1 53 -3 203 -11 332 -16z m8717
-2166 c-3 -3 -12 -4 -19 -1 -8 3 -5 6 6 6 11 1 17 -2 13 -5z m-18904 -421 c-7
-2 -19 -2 -25 0 -7 3 -2 5 12 5 14 0 19 -2 13 -5z m-63 -13 c-34 -11 -60 -11
-35 0 11 5 29 8 40 8 16 0 15 -2 -5 -8z m125 -38 c-8 -8 -25 10 -25 26 0 13 2
13 14 -4 8 -10 13 -21 11 -22z m9531 -1759 c102 -240 246 -620 334 -883 206
-617 302 -1111 272 -1397 -9 -93 -14 -106 -60 -187 -160 -278 -209 -571 -152
-899 27 -155 86 -340 229 -716 29 -74 50 -135 48 -137 -2 -2 -70 -13 -153 -24
-175 -24 -343 -53 -939 -160 -242 -44 -510 -91 -595 -104 -200 -32 -535 -70
-555 -62 -13 5 -15 37 -15 219 l0 213 81 114 c143 203 286 461 343 618 53 147
77 269 96 477 13 149 29 207 85 304 52 90 103 219 139 351 28 103 66 313 66
364 0 21 18 58 56 116 180 276 425 899 620 1580 73 256 72 250 79 250 2 0 12
-17 21 -37z m-9521 -783 c-3 -5 -16 -10 -28 -9 -21 0 -21 1 -2 9 28 12 37 12
30 0z m-1902 -1067 c-7 -2 -19 -2 -25 0 -7 3 -2 5 12 5 14 0 19 -2 13 -5z
m169 -18 c177 -29 258 -91 258 -198 0 -25 -6 -49 -13 -56 -35 -29 -104 -41
-251 -45 -83 -2 -132 -2 -108 1 l42 4 0 149 0 149 -37 4 c-32 3 -33 4 -8 5 17
1 69 -5 117 -13z m18686 -1442 c-15 -2 -42 -2 -60 0 -18 2 -6 4 27 4 33 0 48
-2 33 -4z m149 -9 c-3 -3 -12 -4 -19 -1 -8 3 -5 6 6 6 11 1 17 -2 13 -5z
m-16411 -261 c-7 -7 -26 7 -26 19 0 6 6 6 15 -2 9 -7 13 -15 11 -17z m469
-10453 l0 -1255 -197 -3 -198 -2 0 1253 c0 690 3 1257 7 1261 4 3 93 5 197 4
l191 -3 0 -1255z m2718 1237 c184 -53 293 -162 343 -344 21 -76 30 -370 16
-480 -23 -165 -85 -280 -184 -342 -31 -20 -57 -39 -58 -42 0 -3 18 -14 41 -24
85 -39 147 -125 186 -258 12 -41 17 -143 23 -472 6 -347 10 -429 23 -470 9
-27 17 -53 17 -57 0 -5 -90 -8 -200 -8 l-199 0 -12 38 c-8 25 -15 172 -19 442
-8 450 -13 485 -74 546 -42 42 -89 54 -213 54 l-103 0 0 -540 0 -540 -195 0
-195 0 0 1261 0 1261 373 -4 c306 -4 382 -8 430 -21z m4964 -32 c25 -93 244
-948 305 -1190 34 -132 65 -244 69 -249 5 -6 9 327 9 742 l0 752 175 0 175 0
0 -1260 0 -1260 -203 0 -204 0 -66 253 c-36 138 -118 455 -182 702 -182 702
-226 869 -231 874 -2 2 -4 -408 -4 -912 l0 -917 -175 0 -175 0 0 1260 0 1260
247 -2 247 -3 13 -50z m4389 -535 c147 -1054 168 -1200 175 -1192 3 4 18 95
32 202 14 107 70 507 124 888 l98 692 282 0 283 0 0 -1260 0 -1260 -185 0
-185 0 -1 953 c0 546 -4 943 -9 932 -5 -11 -16 -69 -24 -130 -9 -60 -58 -389
-110 -730 -52 -341 -106 -701 -121 -800 -14 -99 -28 -190 -31 -202 -4 -23 -6
-23 -169 -23 -163 0 -165 0 -169 23 -6 25 -119 764 -196 1282 -69 459 -88 576
-94 583 -3 3 -6 -421 -6 -941 l0 -947 -170 0 -170 0 0 1260 0 1260 282 -2 282
-3 82 -585z m3738 581 c3 -4 22 -109 41 -232 20 -123 85 -523 145 -889 180
-1106 220 -1354 220 -1372 0 -17 -16 -18 -194 -18 l-194 0 -6 28 c-6 27 -66
450 -66 464 0 5 -101 8 -225 8 l-224 0 -6 -32 c-9 -59 -65 -448 -65 -458 0 -6
-69 -10 -186 -10 l-186 0 6 28 c3 15 30 180 60 367 30 187 84 520 120 740 178
1086 226 1378 226 1381 0 8 529 4 534 -5z m2725 -28 c6 -21 50 -189 97 -373
47 -184 112 -438 145 -565 33 -126 76 -296 96 -377 21 -82 41 -148 45 -148 5
0 8 336 8 748 l-1 747 173 0 173 0 0 -1255 0 -1255 -202 -3 -201 -2 -15 52
c-9 29 -61 231 -117 448 -220 852 -251 971 -299 1150 l-50 185 -3 -915 -3
-915 -175 0 -175 0 -3 1245 c-1 685 0 1251 3 1258 3 9 63 12 249 12 l245 0 10
-37z m-13293 -87 c107 -16 244 -55 250 -71 4 -10 -220 -408 -248 -442 -8 -10
-57 -13 -183 -13 l-173 0 -53 93 c-29 50 -88 152 -132 226 -43 74 -75 137 -70
142 14 13 183 59 253 68 102 13 257 12 356 -3z m-655 -318 c57 -101 105 -189
107 -195 3 -10 -65 -13 -312 -13 -174 0 -316 3 -316 7 0 17 119 159 177 213
60 55 218 170 233 170 4 0 54 -82 111 -182z m1125 141 c69 -44 191 -149 239
-206 59 -70 105 -130 105 -137 0 -3 -142 -6 -316 -6 -174 0 -314 4 -312 9 15
38 215 371 224 371 5 0 32 -14 60 -31z m203 -473 c-2 -2 -75 -45 -161 -95
l-157 -91 -538 0 -538 0 -145 85 c-80 46 -152 89 -160 94 -10 6 279 10 844 10
473 1 857 -1 855 -3z m-1842 -141 c185 -300 243 -397 243 -406 0 -6 -85 -8
-222 -7 l-223 3 2 100 c1 114 26 231 73 350 33 83 40 98 45 93 1 -2 38 -61 82
-133z m547 -309 c79 -127 200 -323 270 -435 l126 -205 0 -229 c0 -127 -2 -228
-4 -226 -2 2 -66 112 -143 244 -77 132 -274 469 -437 749 -164 279 -300 514
-303 522 -3 7 74 -32 171 -88 l177 -101 143 -231z m1348 392 c-90 -152 -173
-293 -313 -533 -90 -154 -212 -363 -271 -465 -59 -102 -147 -254 -196 -337
-48 -84 -90 -153 -94 -153 -5 0 -8 99 -8 220 l0 220 109 172 c60 95 185 295
279 443 l171 270 163 97 c90 53 167 97 171 97 5 1 0 -14 -11 -31z m216 -70
c43 -125 61 -218 64 -330 l3 -93 -212 -3 c-117 -1 -213 1 -213 6 0 8 53 95
242 400 38 61 73 112 77 112 4 0 22 -42 39 -92z m-704 -176 c5 -9 -405 -664
-419 -668 -6 -2 -43 54 -83 124 -40 70 -126 219 -191 332 -66 112 -117 208
-115 212 6 10 802 9 808 0z m-985 -525 c52 -83 94 -157 94 -163 0 -6 -59 -115
-133 -242 -111 -193 -135 -230 -149 -223 -34 19 -190 190 -241 266 -84 125
-168 336 -187 473 l-6 42 264 0 264 0 94 -153z m1744 116 c-22 -155 -97 -345
-193 -489 -53 -78 -216 -254 -236 -254 -9 0 -255 418 -262 444 -2 11 130 238
180 309 l19 27 249 0 249 0 -6 -37z m-1507 -500 c148 -240 304 -498 304 -506
0 -18 -225 16 -330 50 -101 32 -251 104 -248 118 6 22 223 395 230 395 5 0 24
-26 44 -57z m827 -139 c59 -102 107 -191 107 -198 0 -17 -150 -86 -257 -120
-110 -34 -308 -64 -301 -46 7 19 333 550 338 550 3 0 54 -84 113 -186z"/>
<path d="M28191 18103 c0 -21 3 -31 6 -23 3 8 11 18 16 22 6 4 4 12 -6 23 -16
15 -17 14 -16 -22z"/>
<path d="M28240 18090 c0 -5 5 -10 10 -10 6 0 10 5 10 10 0 6 -4 10 -10 10 -5
0 -10 -4 -10 -10z"/>
<path d="M27375 16625 c0 -742 1 -1048 2 -678 2 369 2 977 0 1350 -1 373 -2
71 -2 -672z"/>
<path d="M27435 17940 c3 -5 8 -10 11 -10 2 0 4 5 4 10 0 6 -5 10 -11 10 -5 0
-7 -4 -4 -10z"/>
<path d="M9708 16743 c7 -3 16 -2 19 1 4 3 -2 6 -13 5 -11 0 -14 -3 -6 -6z"/>
<path d="M10435 15280 c0 -701 1 -988 2 -637 2 350 2 924 0 1275 -1 350 -2 63
-2 -638z"/>
<path d="M10340 14016 c0 -2 7 -7 16 -10 8 -3 12 -2 9 4 -6 10 -25 14 -25 6z"/>
<path d="M10415 13990 c-3 -6 1 -7 9 -4 18 7 21 14 7 14 -6 0 -13 -4 -16 -10z"/>
<path d="M13072 4073 l3 -358 101 0 c227 2 274 63 274 356 0 193 -10 248 -57
299 -42 47 -92 60 -229 60 l-94 0 2 -357z"/>
<path d="M26287 4320 c-4 -14 -27 -176 -52 -360 -25 -184 -61 -442 -80 -573
-19 -131 -35 -247 -35 -257 0 -19 8 -20 175 -20 96 0 175 3 175 7 0 3 -21 148
-46 322 -25 174 -65 449 -88 611 -26 181 -45 285 -49 270z"/>
</g>
</svg>
