<svg width="459.922" height="55.156" viewBox="0 0 459.922 55.156" xmlns="http://www.w3.org/2000/svg"><g id="svgGroup" stroke-linecap="round" fill-rule="evenodd" font-size="9pt" stroke="#000" stroke-width="0.25mm" fill="black" style="stroke:#000;stroke-width:0.25mm;fill:black"><path d="M 450.781 42.422 L 450.781 19.219 Q 449.922 19.531 449.648 20.039 Q 449.375 20.547 449.063 21.328 A 5.709 5.709 0 0 0 448.979 21.504 Q 448.804 21.887 448.441 22.766 A 281.023 281.023 0 0 0 448.438 22.774 A 184.659 184.659 0 0 0 448.064 23.684 Q 447.734 24.492 447.344 25.469 Q 446.719 27.031 445.977 28.75 A 142.174 142.174 0 0 0 445.264 30.43 A 121.18 121.18 0 0 0 444.609 32.031 L 443.516 34.766 L 442.891 36.328 Q 442.344 37.578 441.523 39.219 A 19.566 19.566 0 0 1 439.57 42.344 Q 438.438 43.828 437.07 44.844 Q 435.703 45.86 434.063 45.86 A 5.377 5.377 0 0 1 431.943 45.454 Q 430.779 44.961 429.922 43.867 Q 428.507 42.063 427.701 39.299 A 20.255 20.255 0 0 1 427.539 38.711 A 36.239 36.239 0 0 1 426.811 35.129 A 48.315 48.315 0 0 1 426.406 31.602 A 285.705 285.705 0 0 1 425.898 23.906 A 404.649 404.649 0 0 0 425.693 20.274 A 331.848 331.848 0 0 0 425.469 16.875 A 31.166 31.166 0 0 0 425.276 14.962 Q 425.026 13.089 424.571 11.827 A 8.81 8.81 0 0 0 424.531 11.719 L 424.297 11.719 L 424.141 11.719 L 424.063 11.719 L 423.984 11.719 L 423.828 11.719 A 4.146 4.146 0 0 0 423.054 12.327 Q 422.704 12.671 422.383 13.125 Q 421.719 14.063 421.172 15.117 A 20.872 20.872 0 0 0 420.674 16.143 A 16.146 16.146 0 0 0 420.273 17.11 Q 419.922 18.047 419.766 18.594 L 410.859 47.188 A 6.346 6.346 0 0 1 410.815 47.315 Q 410.765 47.456 410.694 47.638 A 21.008 21.008 0 0 1 410.625 47.813 A 3.045 3.045 0 0 1 410.212 48.533 A 3.378 3.378 0 0 1 410.195 48.555 A 2.661 2.661 0 0 1 409.581 49.133 A 2.518 2.518 0 0 1 409.57 49.141 A 0.866 0.866 0 0 1 409.356 49.246 Q 409.142 49.315 408.916 49.249 A 0.948 0.948 0 0 1 408.828 49.219 A 0.422 0.422 0 0 1 408.67 49.185 Q 408.535 49.13 408.37 48.987 A 2.459 2.459 0 0 1 408.242 48.867 A 6.467 6.467 0 0 1 407.657 48.192 A 7.179 7.179 0 0 1 407.578 48.086 Q 407.266 47.656 407.031 47.227 A 9.026 9.026 0 0 1 406.924 47.024 Q 406.777 46.738 406.719 46.563 Q 405.547 38.672 405.391 30.469 Q 405.234 22.266 405.391 14.531 L 405.039 13.828 Q 404.823 13.396 404.778 13.208 A 0.367 0.367 0 0 1 404.766 13.125 Q 404.766 12.593 405.098 12.024 A 3.272 3.272 0 0 1 405.117 11.992 A 6.643 6.643 0 0 1 405.762 11.101 A 7.634 7.634 0 0 1 405.977 10.86 A 5.211 5.211 0 0 1 406.747 10.174 A 4.605 4.605 0 0 1 407.07 9.961 A 3.142 3.142 0 0 1 407.451 9.765 Q 407.652 9.679 407.838 9.64 A 1.421 1.421 0 0 1 408.125 9.61 A 2.22 2.22 0 0 1 408.517 9.642 Q 408.992 9.727 409.219 10.039 Q 409.459 10.369 409.514 10.907 A 3.339 3.339 0 0 1 409.531 11.25 Q 409.531 15.469 409.141 19.61 Q 408.75 23.75 408.75 28.047 L 408.75 29.61 A 49.853 49.853 0 0 0 408.789 31.602 A 52.635 52.635 0 0 1 408.818 32.502 Q 408.828 32.957 408.828 33.36 L 408.828 34.219 L 409.531 37.031 Q 409.609 36.875 409.883 36.641 Q 410.106 36.449 410.199 36.362 A 1.54 1.54 0 0 0 410.234 36.328 A 11.968 11.968 0 0 0 410.32 36.152 Q 410.444 35.893 410.649 35.447 A 115.639 115.639 0 0 0 410.781 35.156 A 151.682 151.682 0 0 0 411.182 34.268 A 182.229 182.229 0 0 0 411.602 33.32 A 483.231 483.231 0 0 0 412.224 31.9 A 424.404 424.404 0 0 0 412.422 31.445 A 18.037 18.037 0 0 0 412.597 31.029 Q 412.827 30.463 412.888 30.17 A 1.591 1.591 0 0 0 412.891 30.156 Q 413.019 29.836 413.305 29.068 A 195.768 195.768 0 0 0 413.438 28.711 A 196.73 196.73 0 0 0 413.752 27.854 Q 414.033 27.085 414.375 26.133 A 82.115 82.115 0 0 1 415.261 23.782 A 93.797 93.797 0 0 1 415.586 22.969 A 115.528 115.528 0 0 0 416.221 21.367 A 97.626 97.626 0 0 0 416.797 19.844 Q 417.173 18.823 417.493 17.988 A 95.734 95.734 0 0 1 417.773 17.266 A 839.397 839.397 0 0 1 417.96 16.792 Q 418.174 16.247 418.294 15.944 A 76.049 76.049 0 0 1 418.359 15.781 A 13.194 13.194 0 0 0 418.538 15.408 Q 418.838 14.756 419.336 13.555 A 22.793 22.793 0 0 1 420.621 10.952 A 25.746 25.746 0 0 1 420.977 10.352 A 19.79 19.79 0 0 1 422.393 8.316 A 16.914 16.914 0 0 1 423.086 7.5 Q 424.219 6.25 425.469 6.25 A 1.581 1.581 0 0 1 426.7 6.838 Q 426.918 7.087 427.098 7.441 A 4.517 4.517 0 0 1 427.266 7.813 Q 427.69 8.875 427.989 10.388 A 27.137 27.137 0 0 1 428.242 11.914 A 54.188 54.188 0 0 1 428.529 14.449 Q 428.65 15.783 428.728 17.268 A 90.074 90.074 0 0 1 428.75 17.695 A 472.613 472.613 0 0 1 429.009 23.946 A 515.619 515.619 0 0 1 429.023 24.375 A 134.079 134.079 0 0 0 429.397 30.852 A 123.183 123.183 0 0 0 429.414 31.055 A 54.983 54.983 0 0 0 429.73 33.94 Q 429.944 35.487 430.234 36.836 A 17.83 17.83 0 0 0 430.705 38.603 Q 431.147 39.961 431.758 40.938 A 3.837 3.837 0 0 0 432.47 41.795 A 2.79 2.79 0 0 0 434.375 42.5 Q 434.844 42.5 435.43 41.992 Q 436.016 41.485 436.563 40.781 A 15.57 15.57 0 0 0 437.374 39.639 A 13.869 13.869 0 0 0 437.539 39.375 A 15.91 15.91 0 0 0 437.737 39.043 Q 437.942 38.689 438.059 38.435 A 3.282 3.282 0 0 0 438.125 38.281 A 27.21 27.21 0 0 0 438.428 37.7 Q 438.926 36.719 439.688 35.078 Q 440.67 32.961 441.909 30.332 A 1280.446 1280.446 0 0 1 441.992 30.156 Q 443.281 27.422 444.688 24.375 Q 446.094 21.328 447.344 18.555 A 588.149 588.149 0 0 1 448.464 16.083 Q 448.994 14.922 449.473 13.887 A 349.421 349.421 0 0 1 449.609 13.594 Q 450.625 11.406 451.094 10.313 Q 451.393 9.595 451.852 8.465 A 518.924 518.924 0 0 0 452.148 7.735 A 34.673 34.673 0 0 0 452.597 6.57 Q 452.795 6.026 452.944 5.547 A 15.866 15.866 0 0 0 453.125 4.922 A 8.42 8.42 0 0 1 454.824 5.398 A 9.418 9.418 0 0 1 455 5.469 A 1.688 1.688 0 0 1 455.504 5.783 Q 455.863 6.116 455.925 6.646 A 1.982 1.982 0 0 1 455.938 6.875 A 1.74 1.74 0 0 1 455.934 6.984 Q 455.927 7.098 455.906 7.253 A 6.465 6.465 0 0 1 455.898 7.305 A 11.188 11.188 0 0 0 455.885 7.401 Q 455.866 7.546 455.861 7.617 A 0.606 0.606 0 0 0 455.859 7.656 A 149.038 149.038 0 0 0 454.394 18.598 A 134.809 134.809 0 0 0 454.258 20.117 A 149.101 149.101 0 0 0 453.75 32.578 L 453.75 34.492 A 108.506 108.506 0 0 0 453.76 35.918 A 137.593 137.593 0 0 0 453.789 37.461 A 137.593 137.593 0 0 1 453.818 39.004 A 108.506 108.506 0 0 1 453.828 40.43 L 453.828 42.422 Q 454.219 45.625 456.094 48.281 Q 457.969 50.938 459.922 53.281 L 459.922 55.078 A 1.737 1.737 0 0 1 459.403 54.991 Q 458.946 54.847 458.388 54.467 A 7.065 7.065 0 0 1 458.203 54.336 A 10.643 10.643 0 0 1 457.188 53.486 Q 456.696 53.023 456.204 52.459 A 16.959 16.959 0 0 1 456.172 52.422 A 23.336 23.336 0 0 1 454.918 50.835 A 28.628 28.628 0 0 1 454.18 49.766 A 36.874 36.874 0 0 1 452.948 47.762 A 31.202 31.202 0 0 1 452.461 46.875 Q 451.719 45.469 451.25 44.297 Q 450.838 43.266 450.788 42.598 A 2.378 2.378 0 0 1 450.781 42.422 Z M 299.766 31.563 L 299.766 31.641 L 299.766 31.797 A 1.313 1.313 0 0 1 299.701 32.221 Q 299.577 32.586 299.216 32.793 A 1.388 1.388 0 0 1 299.18 32.813 Q 298.73 33.052 298.075 33.223 A 8.736 8.736 0 0 1 297.656 33.32 A 33.054 33.054 0 0 1 296.312 33.571 A 38.794 38.794 0 0 1 295.664 33.672 Q 294.609 33.828 293.672 34.219 A 4.185 4.185 0 0 0 292.705 34.775 A 3.6 3.6 0 0 0 292.148 35.313 A 2.348 2.348 0 0 0 291.709 36.152 Q 291.608 36.488 291.577 36.889 A 4.816 4.816 0 0 0 291.563 37.266 A 4.06 4.06 0 0 0 291.947 38.949 Q 292.216 39.544 292.673 40.147 A 8.999 8.999 0 0 0 293.203 40.781 A 16.753 16.753 0 0 0 295.2 42.624 A 22.806 22.806 0 0 0 297.383 44.141 A 42.577 42.577 0 0 0 300.786 46.018 A 52.131 52.131 0 0 0 303.047 47.07 A 71.4 71.4 0 0 0 307.646 48.902 A 62.625 62.625 0 0 0 309.141 49.414 A 61.058 61.058 0 0 0 311.804 50.227 Q 313.065 50.579 314.207 50.829 A 36.243 36.243 0 0 0 314.531 50.899 Q 316.872 51.389 318.118 51.333 A 4.987 4.987 0 0 0 318.203 51.328 Q 318.438 51.328 319.023 51.133 Q 319.609 50.938 320.234 50.703 A 59.933 59.933 0 0 0 321.409 50.249 A 54.689 54.689 0 0 0 321.445 50.235 Q 321.967 50.026 322.21 49.941 A 4.208 4.208 0 0 1 322.266 49.922 A 2.397 2.397 0 0 1 322.267 49.837 Q 322.273 49.697 322.292 49.432 A 35.516 35.516 0 0 1 322.305 49.258 Q 322.337 48.843 322.342 48.663 A 2.178 2.178 0 0 0 322.344 48.594 Q 322.344 47.656 322.109 46.992 A 4.816 4.816 0 0 0 321.445 45.742 A 6.524 6.524 0 0 0 320.923 45.12 A 8.793 8.793 0 0 0 320.352 44.57 Q 319.688 43.985 318.828 43.125 L 316.719 41.016 A 342.578 342.578 0 0 0 315.315 39.62 Q 314.47 38.786 313.516 37.852 A 566.277 566.277 0 0 0 310.71 35.127 A 651.479 651.479 0 0 0 309.727 34.18 A 447.743 447.743 0 0 0 306.804 31.397 A 401.468 401.468 0 0 0 305.859 30.508 A 315.894 315.894 0 0 1 304.308 29.045 Q 303.604 28.375 302.983 27.775 A 175.838 175.838 0 0 1 302.578 27.383 A 453.384 453.384 0 0 1 301.919 26.741 Q 300.996 25.84 300.469 25.313 A 32.462 32.462 0 0 1 298.337 22.263 A 25.065 25.065 0 0 1 296.914 19.61 A 13.938 13.938 0 0 1 295.822 15.863 A 18.337 18.337 0 0 1 295.625 13.125 A 14.404 14.404 0 0 1 296.079 9.449 A 12.376 12.376 0 0 1 296.914 7.188 A 9.552 9.552 0 0 1 299.557 3.916 A 12.615 12.615 0 0 1 301.172 2.813 L 301.797 2.813 L 302.813 2.813 L 303.867 2.813 L 304.531 2.813 A 13.148 13.148 0 0 1 307.339 3.129 A 16.777 16.777 0 0 1 309.141 3.633 A 16.437 16.437 0 0 1 313.594 5.938 Q 315.625 7.422 316.953 9.531 Q 318.281 11.641 318.281 14.141 A 3.7 3.7 0 0 1 318.276 14.319 Q 318.266 14.523 318.236 14.819 A 20.036 20.036 0 0 1 318.203 15.117 A 1.06 1.06 0 0 1 318.136 15.392 Q 317.979 15.781 317.5 15.781 Q 316.328 15.781 315.43 15.039 A 8.234 8.234 0 0 1 314.551 14.19 Q 314.121 13.711 313.711 13.125 Q 312.891 11.953 312.109 10.664 A 20.17 20.17 0 0 0 310.352 8.203 A 8.366 8.366 0 0 0 308.086 6.289 A 5.589 5.589 0 0 0 305.759 5.573 A 6.847 6.847 0 0 0 305.156 5.547 A 4.518 4.518 0 0 0 303.438 5.898 A 5.897 5.897 0 0 0 302.656 6.289 A 8.732 8.732 0 0 0 300.469 8.125 A 9.744 9.744 0 0 0 298.945 10.547 A 7.538 7.538 0 0 0 298.545 11.679 Q 298.359 12.388 298.359 13.047 A 13.827 13.827 0 0 0 298.623 15.691 A 16.155 16.155 0 0 0 298.828 16.602 Q 299.297 18.438 300.156 20.117 A 22.645 22.645 0 0 0 302.148 23.32 A 25.475 25.475 0 0 0 304.143 25.697 A 22.967 22.967 0 0 0 304.531 26.094 L 322.969 43.828 A 7.205 7.205 0 0 1 324.161 45.171 A 9.921 9.921 0 0 1 324.961 46.563 Q 325.781 48.281 325.781 49.844 A 4.831 4.831 0 0 1 325.649 50.999 A 3.868 3.868 0 0 1 325.234 52.031 A 4.649 4.649 0 0 1 323.828 53.555 Q 322.969 54.141 321.836 54.414 A 9.788 9.788 0 0 1 319.531 54.688 L 318.828 54.688 Q 318.357 54.629 317.486 54.414 A 36.263 36.263 0 0 1 316.875 54.258 A 70.195 70.195 0 0 0 314.141 53.594 A 881.208 881.208 0 0 1 312.783 53.291 A 705.14 705.14 0 0 1 311.523 53.008 Q 310.313 52.735 310 52.656 A 28.202 28.202 0 0 1 309.139 52.37 Q 308.249 52.06 307.072 51.6 A 95.967 95.967 0 0 1 306.68 51.445 A 71.222 71.222 0 0 1 304.521 50.547 A 93.669 93.669 0 0 1 302.188 49.492 A 62.792 62.792 0 0 1 298.2 47.445 A 70.507 70.507 0 0 1 297.266 46.914 A 35.037 35.037 0 0 1 294.135 44.884 A 29.632 29.632 0 0 1 292.773 43.828 A 21.488 21.488 0 0 1 290.855 42.052 A 16.656 16.656 0 0 1 289.492 40.43 A 7.967 7.967 0 0 1 288.735 39.188 Q 288.37 38.431 288.255 37.697 A 4.313 4.313 0 0 1 288.203 37.031 A 5.463 5.463 0 0 1 288.383 35.595 A 4.247 4.247 0 0 1 289.18 34.024 A 7.107 7.107 0 0 1 291.563 32.11 A 11.579 11.579 0 0 1 294.405 31.134 A 12.936 12.936 0 0 1 294.609 31.094 A 18.466 18.466 0 0 1 296.286 30.85 A 14.254 14.254 0 0 1 297.656 30.781 A 1.051 1.051 0 0 1 297.838 30.8 Q 298.13 30.853 298.639 31.05 A 11.35 11.35 0 0 1 298.75 31.094 A 19.376 19.376 0 0 1 299.066 31.223 Q 299.583 31.441 299.766 31.563 Z M 36.953 24.063 L 36.953 23.906 L 36.953 23.828 L 36.953 23.672 A 3.171 3.171 0 0 0 36.917 23.177 Q 36.877 22.925 36.793 22.728 A 1.132 1.132 0 0 0 36.445 22.266 A 3.015 3.015 0 0 0 35.356 21.739 A 3.481 3.481 0 0 0 35.273 21.719 Q 34.609 21.563 33.906 21.406 A 1.546 1.546 0 0 1 33.357 21.174 A 1.427 1.427 0 0 1 32.891 20.625 A 4.806 4.806 0 0 1 33.769 19.725 Q 34.229 19.356 34.825 19.027 A 10.793 10.793 0 0 1 35.703 18.594 A 27.608 27.608 0 0 1 38.026 17.701 A 36.052 36.052 0 0 1 40.117 17.07 A 57.033 57.033 0 0 1 44.582 16.062 A 63.467 63.467 0 0 1 45.273 15.938 A 145.629 145.629 0 0 1 50.547 15.117 Q 53.125 14.766 55.156 14.649 A 104.063 104.063 0 0 1 56.118 14.597 Q 57.48 14.531 58.359 14.531 L 60.156 14.531 A 11.082 11.082 0 0 1 60.638 14.543 Q 61.213 14.568 61.992 14.649 A 612.844 612.844 0 0 1 64.219 14.883 A 215.541 215.541 0 0 0 65.001 14.965 Q 65.62 15.029 66.133 15.078 L 66.953 15.156 L 67.656 15.781 L 66.953 16.563 Q 60.156 16.797 53.867 17.461 A 79.523 79.523 0 0 0 42.856 19.439 A 89.184 89.184 0 0 0 41.016 19.922 A 0.746 0.746 0 0 0 40.978 20.016 Q 40.924 20.175 40.871 20.48 A 8.18 8.18 0 0 0 40.859 20.547 A 20 20 0 0 1 40.771 21.035 A 25.529 25.529 0 0 1 40.664 21.563 A 18.971 18.971 0 0 0 40.51 22.361 A 16.692 16.692 0 0 0 40.469 22.617 A 17.473 17.473 0 0 0 40.438 22.823 Q 40.399 23.098 40.392 23.23 A 0.975 0.975 0 0 0 40.391 23.281 L 40.391 23.789 A 7.095 7.095 0 0 0 40.409 24.291 A 8.371 8.371 0 0 0 40.43 24.531 Q 40.466 24.896 40.469 25.193 A 5.121 5.121 0 0 1 40.469 25.235 L 40.469 25.781 A 135.525 135.525 0 0 0 53.125 25.195 A 135.525 135.525 0 0 1 65.781 24.61 L 66.719 24.61 Q 67.155 24.61 67.489 24.711 A 1.892 1.892 0 0 1 67.539 24.727 A 1.072 1.072 0 0 1 68.009 25.044 A 1.416 1.416 0 0 1 68.125 25.195 A 1.242 1.242 0 0 1 68.281 25.541 Q 68.359 25.811 68.359 26.172 A 0.297 0.297 0 0 1 68.261 26.365 Q 67.95 26.696 66.657 27.187 A 20.922 20.922 0 0 1 66.445 27.266 A 64.582 64.582 0 0 1 65.427 27.63 Q 63.834 28.185 61.709 28.846 A 175.306 175.306 0 0 1 61.641 28.867 A 583.795 583.795 0 0 0 58.623 29.815 A 747.483 747.483 0 0 0 55.352 30.86 A 98.049 98.049 0 0 0 51.302 32.257 A 79.991 79.991 0 0 0 49.063 33.125 A 37.168 37.168 0 0 0 46.875 34.09 Q 45.394 34.805 44.258 35.547 A 8.243 8.243 0 0 0 43.477 36.119 Q 42.709 36.762 42.461 37.383 A 1.574 1.574 0 0 0 42.344 37.969 L 42.344 38.203 L 42.344 38.281 A 1.742 1.742 0 0 0 42.381 38.318 Q 42.48 38.411 42.734 38.633 Q 43.047 38.906 43.047 39.063 A 0.112 0.112 0 0 0 43.051 39.094 Q 43.061 39.128 43.096 39.137 A 0.115 0.115 0 0 0 43.125 39.141 L 43.125 39.297 A 0.112 0.112 0 0 0 43.129 39.328 Q 43.139 39.363 43.174 39.372 A 0.115 0.115 0 0 0 43.203 39.375 L 43.164 39.414 Q 43.132 39.447 43.126 39.506 A 0.275 0.275 0 0 0 43.125 39.531 Q 43.073 39.584 43.055 39.636 A 0.164 0.164 0 0 0 43.047 39.688 A 0.092 0.092 0 0 1 43.033 39.729 Q 42.985 39.817 42.769 40.008 A 5.431 5.431 0 0 1 42.734 40.039 A 5.203 5.203 0 0 1 42.625 40.132 Q 42.407 40.313 42.344 40.313 Q 42.266 40.547 41.992 41.094 Q 41.767 41.545 41.727 41.677 A 0.163 0.163 0 0 0 41.719 41.719 Q 41.719 44.297 42.617 46.133 Q 43.516 47.969 45 49.102 A 9.7 9.7 0 0 0 47.626 50.513 A 11.592 11.592 0 0 0 48.477 50.781 Q 50.469 51.328 52.656 51.328 A 18.715 18.715 0 0 0 55.911 51.056 A 15.127 15.127 0 0 0 58.203 50.469 Q 60.703 49.61 62.891 48.125 A 28.514 28.514 0 0 0 66.758 44.957 A 31.637 31.637 0 0 0 67.07 44.649 A 63.292 63.292 0 0 0 70.282 41.179 A 71.35 71.35 0 0 0 71.016 40.313 Q 71.087 40.313 71.258 39.983 A 4.869 4.869 0 0 0 71.289 39.922 A 23.86 23.86 0 0 1 71.494 39.522 A 28.306 28.306 0 0 1 71.719 39.102 Q 71.953 38.672 72.148 38.242 A 5.422 5.422 0 0 0 72.225 38.067 Q 72.344 37.778 72.344 37.656 A 0.64 0.64 0 0 1 72.346 37.613 Q 72.352 37.519 72.382 37.309 A 11.843 11.843 0 0 1 72.383 37.305 A 5.825 5.825 0 0 0 72.4 37.175 Q 72.422 36.992 72.422 36.875 Q 72.422 36.406 72.148 36.133 A 1.908 1.908 0 0 0 71.604 35.755 A 2.244 2.244 0 0 0 71.484 35.703 A 2.905 2.905 0 0 0 70.664 35.508 A 9.626 9.626 0 0 0 69.998 35.471 A 10.905 10.905 0 0 0 69.766 35.469 Q 69.766 34.375 70.781 33.985 A 5.75 5.75 0 0 1 72.368 33.613 A 5.298 5.298 0 0 1 72.813 33.594 A 2.785 2.785 0 0 1 73.518 33.678 A 1.864 1.864 0 0 1 74.57 34.375 A 2.871 2.871 0 0 1 75.087 35.569 A 3.983 3.983 0 0 1 75.156 36.328 A 8.804 8.804 0 0 1 74.602 39.355 A 11.214 11.214 0 0 1 73.984 40.742 A 20.098 20.098 0 0 1 71.884 43.928 A 23.715 23.715 0 0 1 70.938 45.039 A 26.349 26.349 0 0 1 67.504 48.197 A 29.931 29.931 0 0 1 66.602 48.867 A 37.6 37.6 0 0 1 61.563 51.914 A 35.565 35.565 0 0 1 57.897 53.505 A 30.864 30.864 0 0 1 56.484 53.985 Q 54.249 54.683 52.388 54.757 A 10.962 10.962 0 0 1 51.953 54.766 Q 48.516 54.766 46.25 53.633 Q 43.984 52.5 42.422 50.508 A 15.207 15.207 0 0 1 40.321 46.858 A 17.758 17.758 0 0 1 39.961 45.899 A 57.116 57.116 0 0 1 38.735 41.82 A 66.132 66.132 0 0 1 38.359 40.313 A 9.28 9.28 0 0 1 37.733 39.971 Q 37.107 39.595 36.758 39.219 A 1.774 1.774 0 0 1 36.365 38.518 Q 36.282 38.247 36.259 37.92 A 3.704 3.704 0 0 1 36.25 37.656 Q 36.25 37.11 36.445 36.719 A 4.444 4.444 0 0 1 36.914 35.977 A 7.454 7.454 0 0 0 37.422 35.235 Q 37.656 34.844 37.656 34.297 A 53.934 53.934 0 0 1 37.662 33.55 Q 37.671 32.891 37.695 32.11 A 16.057 16.057 0 0 0 37.703 31.608 A 16.921 16.921 0 0 0 37.578 29.57 A 10.462 10.462 0 0 0 37.12 27.506 A 9.534 9.534 0 0 0 36.992 27.149 Q 36.563 26.016 35.547 25.313 Q 35.781 25.235 36.289 24.727 L 36.953 24.063 Z M 284.531 30.156 L 284.766 30.156 L 285.078 30.469 A 3.195 3.195 0 0 0 285.204 30.588 Q 285.356 30.725 285.469 30.781 Q 285 31.641 283.945 32.149 A 11.06 11.06 0 0 1 282.46 32.731 A 13.392 13.392 0 0 1 281.602 32.969 Q 280.313 33.281 278.906 33.555 Q 277.5 33.828 276.406 34.18 A 10.163 10.163 0 0 0 275.531 34.504 Q 275.111 34.683 274.761 34.885 A 5.65 5.65 0 0 0 274.57 35 A 1.677 1.677 0 0 0 274.111 35.416 Q 273.851 35.767 273.83 36.244 A 1.925 1.925 0 0 0 273.828 36.328 A 25.171 25.171 0 0 0 274.023 39.453 Q 274.219 41.016 274.492 42.617 A 136.315 136.315 0 0 1 275 45.82 Q 275.234 47.422 275.234 49.063 Q 275.234 49.453 275.195 50.156 Q 275.156 50.86 275.039 51.563 A 3.45 3.45 0 0 1 274.784 52.418 A 3.042 3.042 0 0 1 274.57 52.813 A 1.131 1.131 0 0 1 273.752 53.343 A 1.594 1.594 0 0 1 273.516 53.36 A 1.112 1.112 0 0 1 272.84 53.119 Q 272.482 52.852 272.165 52.289 A 4.878 4.878 0 0 1 272.109 52.188 Q 271.624 51.277 271.279 49.988 A 16.862 16.862 0 0 1 271.094 49.219 A 41.261 41.261 0 0 1 270.691 47.086 A 52.698 52.698 0 0 1 270.43 45.274 Q 270.156 43.125 269.961 41.133 A 81.016 81.016 0 0 0 269.783 39.48 Q 269.693 38.726 269.596 38.055 A 46.004 46.004 0 0 0 269.531 37.617 A 23.497 23.497 0 0 0 269.429 37.001 Q 269.27 36.126 269.111 35.734 A 1.526 1.526 0 0 0 269.063 35.625 A 10.446 10.446 0 0 0 268.698 35.587 Q 268.031 35.528 266.758 35.469 A 197.488 197.488 0 0 1 264.15 35.33 A 225.688 225.688 0 0 1 263.242 35.274 A 501.862 501.862 0 0 1 261.455 35.156 A 424.322 424.322 0 0 1 259.766 35.039 A 95.952 95.952 0 0 0 259.031 34.989 Q 258.159 34.934 257.685 34.924 A 9.054 9.054 0 0 0 257.5 34.922 L 256.719 34.922 Q 255.156 34.922 253.789 36.367 Q 252.507 37.722 251.432 39.764 A 21.678 21.678 0 0 0 251.289 40.039 A 79.026 79.026 0 0 0 249.681 43.401 A 91.922 91.922 0 0 0 249.063 44.805 A 269.902 269.902 0 0 1 247.988 47.266 A 224.815 224.815 0 0 1 246.953 49.57 A 26.665 26.665 0 0 1 246.082 51.317 Q 245.628 52.147 245.158 52.837 A 14.416 14.416 0 0 1 244.844 53.281 A 5.285 5.285 0 0 1 244.234 53.982 Q 243.873 54.325 243.496 54.518 A 2.162 2.162 0 0 1 242.5 54.766 A 1.708 1.708 0 0 1 242.085 54.719 Q 241.568 54.589 241.367 54.102 A 3.679 3.679 0 0 1 241.1 52.898 A 4.315 4.315 0 0 1 241.094 52.656 Q 241.094 52.5 241.133 52.266 L 241.172 52.031 A 70.502 70.502 0 0 1 243.633 47.656 A 141.143 141.143 0 0 1 246.289 43.477 Q 247.656 41.406 248.945 39.258 A 64.444 64.444 0 0 0 251.328 34.922 A 1.619 1.619 0 0 0 250.982 34.437 Q 250.566 34.022 249.766 33.672 A 34.373 34.373 0 0 0 248.757 33.251 Q 247.856 32.891 246.758 32.5 A 66.38 66.38 0 0 1 244.484 31.643 A 80.231 80.231 0 0 1 243.047 31.055 A 19.951 19.951 0 0 1 239.763 29.311 A 18.392 18.392 0 0 1 239.453 29.102 A 11.195 11.195 0 0 1 237.019 26.843 A 10.479 10.479 0 0 1 236.719 26.445 A 5.841 5.841 0 0 1 235.636 23.298 A 7.27 7.27 0 0 1 235.625 22.891 A 5.454 5.454 0 0 1 237.031 19.18 A 11.526 11.526 0 0 1 240.032 16.761 A 13.263 13.263 0 0 1 240.469 16.524 A 18.922 18.922 0 0 1 244.766 14.922 A 23.524 23.524 0 0 1 246.377 14.589 Q 247.646 14.375 248.672 14.375 A 17.174 17.174 0 0 1 251.714 14.633 A 12.956 12.956 0 0 1 254.727 15.547 A 33.606 33.606 0 0 1 257.733 17.088 A 43.041 43.041 0 0 1 260.156 18.594 A 8.511 8.511 0 0 0 261.454 17.4 A 7.676 7.676 0 0 0 261.758 17.031 Q 262.422 16.172 262.969 15.156 A 6.72 6.72 0 0 1 263.111 14.851 Q 263.329 14.407 263.748 13.654 A 69.823 69.823 0 0 1 264.023 13.164 A 64.016 64.016 0 0 0 265.228 10.936 A 74.156 74.156 0 0 0 265.664 10.078 A 69.414 69.414 0 0 1 266.843 7.821 A 59.806 59.806 0 0 1 267.305 6.992 Q 268.097 5.597 268.343 4.966 A 3.684 3.684 0 0 0 268.359 4.922 A 6.943 6.943 0 0 1 268.692 4.686 Q 269.094 4.42 269.375 4.336 A 2.215 2.215 0 0 1 269.65 4.274 Q 269.985 4.219 270.469 4.219 L 270.82 4.219 L 271.172 4.219 Q 271.953 7.5 272.344 10.938 A 122.345 122.345 0 0 1 272.93 17.813 A 607.381 607.381 0 0 1 273.281 24.688 Q 273.438 28.125 273.828 31.563 Q 274.063 31.563 274.688 31.602 Q 275.313 31.641 275.625 31.641 Q 276.719 31.641 277.813 31.406 A 66.272 66.272 0 0 0 280 30.899 Q 281.094 30.625 282.227 30.391 Q 283.359 30.156 284.531 30.156 Z M 152.344 29.531 L 151.953 29.531 A 0.822 0.822 0 0 0 151.893 29.432 Q 151.825 29.334 151.71 29.212 A 3.528 3.528 0 0 0 151.641 29.141 L 151.328 28.828 A 3.639 3.639 0 0 0 151.323 28.645 Q 151.314 28.468 151.289 28.242 A 5.914 5.914 0 0 1 151.262 27.912 Q 151.253 27.742 151.251 27.552 A 10.668 10.668 0 0 1 151.25 27.422 A 9.74 9.74 0 0 0 151.245 27.087 Q 151.238 26.904 151.225 26.744 A 5.298 5.298 0 0 0 151.211 26.602 Q 151.175 26.278 151.172 26.12 A 1.444 1.444 0 0 1 151.172 26.094 A 9.668 9.668 0 0 1 151.27 24.688 A 7.31 7.31 0 0 1 151.563 23.438 Q 151.953 22.266 151.953 21.016 L 151.953 20.625 A 58.994 58.994 0 0 1 150.313 18.621 A 64.64 64.64 0 0 1 150.078 18.32 A 20.539 20.539 0 0 0 148.086 16.094 A 10.237 10.237 0 0 0 145.781 14.414 A 5.722 5.722 0 0 0 143.544 13.774 A 6.967 6.967 0 0 0 142.969 13.75 A 5.042 5.042 0 0 0 139.871 14.818 A 6.654 6.654 0 0 0 139.414 15.195 A 12.004 12.004 0 0 0 137.58 17.307 A 15.3 15.3 0 0 0 136.641 18.867 A 27.13 27.13 0 0 0 135.302 21.854 A 33.694 33.694 0 0 0 134.609 23.867 A 56.39 56.39 0 0 0 133.22 29.252 A 52.038 52.038 0 0 0 133.203 29.336 Q 132.656 32.031 132.422 34.336 Q 132.21 36.418 132.19 37.703 A 16.711 16.711 0 0 0 132.188 37.969 Q 132.188 41.016 132.891 43.594 A 12.245 12.245 0 0 0 134.164 46.642 A 10.827 10.827 0 0 0 135.156 48.047 Q 136.719 49.922 139.023 50.977 A 11.134 11.134 0 0 0 141.682 51.792 Q 142.881 52.009 144.247 52.029 A 19.095 19.095 0 0 0 144.531 52.031 A 19.195 19.195 0 0 0 146.97 51.87 A 22.567 22.567 0 0 0 147.969 51.719 A 28.246 28.246 0 0 0 151.523 50.86 Q 153.281 50.313 154.961 49.531 A 23.981 23.981 0 0 0 157.324 48.273 A 20.939 20.939 0 0 0 158.047 47.813 A 0.269 0.269 0 0 0 158.133 47.795 Q 158.267 47.749 158.496 47.576 A 4.405 4.405 0 0 0 158.594 47.5 A 88.966 88.966 0 0 0 158.994 47.178 A 104.008 104.008 0 0 0 159.414 46.836 A 9.233 9.233 0 0 1 160.059 46.353 A 8.12 8.12 0 0 1 160.273 46.211 A 4.532 4.532 0 0 0 160.445 46.097 Q 160.72 45.903 160.781 45.781 A 0.64 0.64 0 0 0 160.825 45.78 Q 160.919 45.773 161.133 45.742 A 11.188 11.188 0 0 1 161.228 45.729 Q 161.374 45.71 161.445 45.705 A 0.606 0.606 0 0 1 161.484 45.703 Q 161.641 45.703 161.875 45.742 A 6.972 6.972 0 0 0 161.97 45.758 Q 162.099 45.777 162.163 45.781 A 0.459 0.459 0 0 0 162.188 45.781 A 6.959 6.959 0 0 1 160.703 48.711 A 12.244 12.244 0 0 1 158.552 50.692 A 14.026 14.026 0 0 1 158.086 51.016 A 16.131 16.131 0 0 1 155.491 52.412 A 18.609 18.609 0 0 1 154.688 52.735 Q 152.813 53.438 150.938 53.906 A 30.269 30.269 0 0 1 148.673 54.385 A 24.762 24.762 0 0 1 147.383 54.57 Q 145.703 54.766 144.375 54.766 A 19.306 19.306 0 0 1 140.687 54.426 A 15.943 15.943 0 0 1 138.242 53.75 Q 135.469 52.735 133.477 50.86 A 12.166 12.166 0 0 1 130.636 46.755 A 14.197 14.197 0 0 1 130.43 46.25 A 15.402 15.402 0 0 1 129.563 42.827 A 20.442 20.442 0 0 1 129.375 40 Q 129.375 38.223 129.604 35.413 A 109.73 109.73 0 0 1 129.609 35.352 A 60.591 60.591 0 0 1 129.984 31.995 A 77.451 77.451 0 0 1 130.43 29.18 Q 131.016 25.86 132.031 22.539 A 36.712 36.712 0 0 1 133.549 18.434 A 30.908 30.908 0 0 1 134.492 16.485 A 17.754 17.754 0 0 1 136.064 14.004 A 13.63 13.63 0 0 1 137.891 12.031 A 6.65 6.65 0 0 1 142.422 10.313 A 9.059 9.059 0 0 1 145.322 10.762 A 7.858 7.858 0 0 1 147.773 12.11 A 14.788 14.788 0 0 1 151.445 16.524 A 24.295 24.295 0 0 1 153.672 22.11 Q 154.453 25.078 154.688 27.422 A 2.438 2.438 0 0 1 153.828 28.945 A 2.752 2.752 0 0 1 153.232 29.33 A 2.079 2.079 0 0 1 152.344 29.531 Z M 168.281 22.656 L 168.281 40.313 A 10.108 10.108 0 0 0 168.614 42.839 A 12.413 12.413 0 0 0 168.984 44.024 A 14.963 14.963 0 0 0 170.859 47.578 A 10.943 10.943 0 0 0 173.016 49.853 A 10.121 10.121 0 0 0 173.594 50.274 A 6.014 6.014 0 0 0 177.031 51.328 Q 179.453 51.328 181.328 50.156 A 12.52 12.52 0 0 0 184.374 47.455 A 14.318 14.318 0 0 0 184.648 47.11 A 18.758 18.758 0 0 0 186.433 44.29 A 22.716 22.716 0 0 0 187.148 42.774 Q 188.203 40.313 188.867 37.852 A 33.955 33.955 0 0 0 189.688 33.93 A 30.33 30.33 0 0 0 189.805 33.047 A 44.038 44.038 0 0 0 190.001 30.953 Q 190.078 29.824 190.078 28.828 L 190.078 26.524 A 31.302 31.302 0 0 0 190.031 24.852 Q 189.985 23.998 189.895 23.056 A 50.901 50.901 0 0 0 189.883 22.93 A 82.816 82.816 0 0 0 189.451 19.354 A 91.015 91.015 0 0 0 189.375 18.828 Q 189.063 16.719 188.438 15.078 A 10.45 10.45 0 0 0 187.885 13.856 Q 187.557 13.245 187.175 12.766 A 5.704 5.704 0 0 0 186.914 12.461 A 2.52 2.52 0 0 0 186.207 11.912 Q 185.574 11.589 184.785 11.703 A 3.171 3.171 0 0 0 184.688 11.719 L 184.609 11.602 Q 184.541 11.499 184.532 11.426 A 0.172 0.172 0 0 1 184.531 11.406 Q 184.531 10.625 185.145 10.166 A 1.992 1.992 0 0 1 185.273 10.078 A 3.398 3.398 0 0 1 185.87 9.775 Q 186.273 9.621 186.663 9.61 A 2.117 2.117 0 0 1 186.719 9.61 Q 187.734 9.61 188.516 10.313 Q 189.297 11.016 189.922 12.07 A 9.434 9.434 0 0 1 190.61 13.506 A 11.846 11.846 0 0 1 190.938 14.492 A 40.418 40.418 0 0 1 191.495 16.662 A 36.05 36.05 0 0 1 191.602 17.149 Q 191.875 18.438 191.992 19.531 Q 192.097 20.51 192.171 21.176 A 252.319 252.319 0 0 0 192.188 21.328 L 192.188 22.305 L 192.188 24.375 L 192.188 26.797 L 192.188 28.828 L 192.188 30.352 L 192.188 32.578 L 192.188 34.805 L 192.188 36.328 A 54.852 54.852 0 0 1 191.367 39.18 A 72.825 72.825 0 0 1 190.313 42.266 A 28.562 28.562 0 0 1 187.305 48.242 Q 185.469 51.016 182.891 52.852 A 9.901 9.901 0 0 1 178.004 54.631 A 12.587 12.587 0 0 1 176.797 54.688 A 8.689 8.689 0 0 1 172.109 53.32 A 14.138 14.138 0 0 1 168.32 49.844 Q 166.719 47.735 165.82 45.195 A 16.084 16.084 0 0 1 165.094 42.401 A 13.06 13.06 0 0 1 164.922 40.313 L 164.922 21.328 A 0.207 0.207 0 0 1 164.946 21.244 Q 165.029 21.068 165.403 20.691 A 9.019 9.019 0 0 1 165.43 20.664 Q 165.938 20.156 166.25 19.922 L 166.406 19.922 L 166.445 19.883 Q 166.478 19.851 166.537 19.845 A 0.275 0.275 0 0 1 166.563 19.844 A 0.904 0.904 0 0 1 167.024 19.974 Q 167.149 20.048 167.27 20.162 A 1.732 1.732 0 0 1 167.305 20.195 Q 167.656 20.547 167.852 21.016 Q 168.047 21.485 168.164 21.953 A 6.684 6.684 0 0 1 168.215 22.173 Q 168.263 22.394 168.276 22.548 A 1.267 1.267 0 0 1 168.281 22.656 Z M 385.547 16.563 L 402.188 16.563 Q 402.188 17.11 401.602 17.461 A 6.484 6.484 0 0 1 400.924 17.813 A 8.656 8.656 0 0 1 400.234 18.086 A 9.912 9.912 0 0 1 399.38 18.344 A 7.917 7.917 0 0 1 398.75 18.477 A 20.917 20.917 0 0 1 398.465 18.522 Q 398.078 18.581 397.886 18.592 A 1.376 1.376 0 0 1 397.813 18.594 A 7.847 7.847 0 0 1 397.505 18.631 Q 396.918 18.69 395.781 18.75 A 147.001 147.001 0 0 0 393.489 18.889 A 164.902 164.902 0 0 0 392.695 18.945 A 173.611 173.611 0 0 1 391.133 19.053 A 148.577 148.577 0 0 1 389.648 19.141 A 99.409 99.409 0 0 1 388.977 19.175 Q 388.047 19.219 387.578 19.219 A 10.649 10.649 0 0 0 386.553 19.727 A 11.629 11.629 0 0 0 386.484 19.766 Q 385.938 20.078 385.547 20.625 A 6.818 6.818 0 0 1 385.588 20.857 Q 385.654 21.26 385.742 21.992 A 226.812 226.812 0 0 1 385.918 23.501 A 253.949 253.949 0 0 1 385.977 24.024 A 68.291 68.291 0 0 1 386.13 25.562 A 60.52 60.52 0 0 1 386.172 26.055 A 48.736 48.736 0 0 1 386.206 26.503 Q 386.25 27.128 386.25 27.422 L 386.25 29.531 L 386.25 33.399 L 386.25 38.047 L 386.25 42.656 L 386.25 46.445 L 386.25 48.594 Q 386.25 48.74 386.318 49.365 A 53.696 53.696 0 0 0 386.328 49.453 A 43.828 43.828 0 0 0 386.416 50.186 A 55.544 55.544 0 0 0 386.523 50.977 A 53.82 53.82 0 0 0 386.641 51.758 A 39.533 39.533 0 0 0 386.758 52.461 Q 386.875 53.125 386.953 53.281 L 386.953 53.75 A 1.397 1.397 0 0 1 386.925 54.044 Q 386.887 54.216 386.802 54.341 A 0.664 0.664 0 0 1 386.523 54.57 A 2.163 2.163 0 0 1 385.909 54.743 A 2.755 2.755 0 0 1 385.547 54.766 A 1.812 1.812 0 0 1 385.094 54.712 A 1.319 1.319 0 0 1 384.531 54.414 A 2.094 2.094 0 0 1 384.026 53.715 A 2.557 2.557 0 0 1 383.945 53.516 A 5.532 5.532 0 0 1 383.672 52.383 A 38.866 38.866 0 0 0 383.595 51.835 Q 383.557 51.575 383.518 51.343 A 23.509 23.509 0 0 0 383.516 51.328 A 33.268 33.268 0 0 0 383.511 50.794 Q 383.497 49.938 383.443 48.546 A 209.249 209.249 0 0 0 383.438 48.399 A 164.16 164.16 0 0 1 383.369 46.289 A 225.009 225.009 0 0 1 383.32 43.945 A 181.927 181.927 0 0 0 383.262 41.406 A 217.883 217.883 0 0 0 383.164 38.711 A 214.807 214.807 0 0 1 383.066 36.006 A 183.637 183.637 0 0 1 383.008 33.438 A 226.642 226.642 0 0 0 382.966 31.355 Q 382.935 30.083 382.891 28.985 A 166.451 166.451 0 0 1 382.856 28.071 Q 382.814 26.828 382.813 26.128 A 23.234 23.234 0 0 1 382.813 26.094 A 30.933 30.933 0 0 1 382.815 25.718 Q 382.821 25.202 382.844 24.523 A 90.185 90.185 0 0 1 382.852 24.297 A 12.084 12.084 0 0 0 382.859 23.866 Q 382.859 23.288 382.802 22.757 A 8.702 8.702 0 0 0 382.734 22.266 A 4.496 4.496 0 0 0 382.449 21.26 A 3.782 3.782 0 0 0 382.109 20.625 A 1.499 1.499 0 0 0 381.225 20.005 Q 380.923 19.922 380.547 19.922 A 60.123 60.123 0 0 0 374.805 20.195 A 37.372 37.372 0 0 0 369.18 21.172 A 29.762 29.762 0 0 0 363.828 23.086 A 24.613 24.613 0 0 0 358.984 26.094 A 0.831 0.831 0 0 1 358.793 26.016 Q 358.614 25.919 358.388 25.719 A 4.993 4.993 0 0 1 358.164 25.508 A 4.9 4.9 0 0 1 357.938 25.267 Q 357.731 25.031 357.639 24.846 A 0.78 0.78 0 0 1 357.578 24.688 A 1.74 1.74 0 0 1 357.525 24.264 Q 357.525 23.489 358.247 22.744 A 4.996 4.996 0 0 1 358.789 22.266 A 11.703 11.703 0 0 1 360.085 21.409 Q 361.294 20.713 362.93 20.078 A 42.034 42.034 0 0 1 366.059 19.01 A 53.496 53.496 0 0 1 368.75 18.281 A 147.337 147.337 0 0 1 373.423 17.219 A 129.445 129.445 0 0 1 374.922 16.914 A 101.831 101.831 0 0 1 377.576 16.425 Q 378.829 16.212 379.954 16.058 A 60.773 60.773 0 0 1 380.273 16.016 Q 382.656 15.703 383.516 15.703 A 5.088 5.088 0 0 1 383.883 15.716 Q 384.318 15.747 384.57 15.86 A 1.818 1.818 0 0 1 384.783 15.974 Q 385.007 16.112 385.307 16.358 A 10.179 10.179 0 0 1 385.547 16.563 Z M 81.875 33.594 L 81.875 34.219 A 25.41 25.41 0 0 0 82.316 39.029 A 21.941 21.941 0 0 0 82.852 41.211 A 16.166 16.166 0 0 0 84.965 45.695 A 14.948 14.948 0 0 0 85.859 46.875 A 14.163 14.163 0 0 0 90.859 50.664 A 14.479 14.479 0 0 0 94.521 51.77 A 19.758 19.758 0 0 0 97.813 52.031 A 21.541 21.541 0 0 0 102.461 51.524 A 69.13 69.13 0 0 0 107.031 50.352 A 105.104 105.104 0 0 1 111.523 49.141 Q 113.75 48.594 116.016 48.594 L 116.641 48.594 L 116.016 49.922 A 0.202 0.202 0 0 0 115.97 49.93 Q 115.86 49.959 115.543 50.092 A 18.758 18.758 0 0 0 115.391 50.156 A 58.272 58.272 0 0 0 114.948 50.349 Q 114.551 50.523 114.063 50.742 L 112.5 51.445 Q 111.719 51.797 111.172 52.031 Q 107.813 53.281 104.414 54.024 A 33.005 33.005 0 0 1 97.458 54.766 A 36.269 36.269 0 0 1 97.344 54.766 A 27.841 27.841 0 0 1 93.498 54.514 Q 91.159 54.187 89.219 53.438 A 15.527 15.527 0 0 1 85.38 51.32 A 13.771 13.771 0 0 1 83.516 49.61 A 15.305 15.305 0 0 1 80.628 44.903 A 18.395 18.395 0 0 1 80.156 43.555 A 23.927 23.927 0 0 1 79.303 39.502 A 32.321 32.321 0 0 1 79.063 35.469 A 130.315 130.315 0 0 1 79.57 23.906 A 118.107 118.107 0 0 1 81.172 12.422 Q 81.329 11.792 81.487 11.321 A 7.79 7.79 0 0 1 81.641 10.899 A 3.413 3.413 0 0 1 81.864 10.438 Q 82.006 10.196 82.177 10.013 A 2.025 2.025 0 0 1 82.227 9.961 A 1.61 1.61 0 0 1 82.773 9.607 A 2.211 2.211 0 0 1 83.164 9.492 A 5.076 5.076 0 0 1 83.608 9.426 Q 83.84 9.4 84.11 9.388 A 12.396 12.396 0 0 1 84.688 9.375 L 84.688 10.586 Q 84.688 11.316 84.636 11.608 A 0.802 0.802 0 0 1 84.609 11.719 A 25.194 25.194 0 0 0 84.57 12.012 Q 84.508 12.488 84.404 13.368 A 327.043 327.043 0 0 0 84.336 13.945 A 142.056 142.056 0 0 1 84.173 15.288 Q 84.098 15.881 84.012 16.532 A 256.197 256.197 0 0 1 83.828 17.891 Q 83.516 20.156 83.203 22.656 A 1219.543 1219.543 0 0 0 82.9 25.098 A 1051.365 1051.365 0 0 0 82.617 27.422 Q 82.344 29.688 82.109 31.367 A 60.257 60.257 0 0 0 82.018 32.048 Q 81.875 33.167 81.875 33.594 Z M 198.906 33.594 L 198.906 34.219 A 25.41 25.41 0 0 0 199.347 39.029 A 21.941 21.941 0 0 0 199.883 41.211 A 16.166 16.166 0 0 0 201.996 45.695 A 14.948 14.948 0 0 0 202.891 46.875 A 14.163 14.163 0 0 0 207.891 50.664 A 14.479 14.479 0 0 0 211.552 51.77 A 19.758 19.758 0 0 0 214.844 52.031 A 21.541 21.541 0 0 0 219.492 51.524 A 69.13 69.13 0 0 0 224.063 50.352 A 105.104 105.104 0 0 1 228.555 49.141 Q 230.781 48.594 233.047 48.594 L 233.672 48.594 L 233.047 49.922 A 0.202 0.202 0 0 0 233.001 49.93 Q 232.891 49.959 232.574 50.092 A 18.758 18.758 0 0 0 232.422 50.156 A 58.272 58.272 0 0 0 231.979 50.349 Q 231.582 50.523 231.094 50.742 L 229.531 51.445 Q 228.75 51.797 228.203 52.031 Q 224.844 53.281 221.445 54.024 A 33.005 33.005 0 0 1 214.49 54.766 A 36.269 36.269 0 0 1 214.375 54.766 A 27.841 27.841 0 0 1 210.529 54.514 Q 208.19 54.187 206.25 53.438 A 15.527 15.527 0 0 1 202.411 51.32 A 13.771 13.771 0 0 1 200.547 49.61 A 15.305 15.305 0 0 1 197.659 44.903 A 18.395 18.395 0 0 1 197.188 43.555 A 23.927 23.927 0 0 1 196.334 39.502 A 32.321 32.321 0 0 1 196.094 35.469 A 130.315 130.315 0 0 1 196.602 23.906 A 118.107 118.107 0 0 1 198.203 12.422 Q 198.361 11.792 198.518 11.321 A 7.79 7.79 0 0 1 198.672 10.899 A 3.413 3.413 0 0 1 198.895 10.438 Q 199.037 10.196 199.208 10.013 A 2.025 2.025 0 0 1 199.258 9.961 A 1.61 1.61 0 0 1 199.804 9.607 A 2.211 2.211 0 0 1 200.195 9.492 A 5.076 5.076 0 0 1 200.64 9.426 Q 200.872 9.4 201.141 9.388 A 12.396 12.396 0 0 1 201.719 9.375 L 201.719 10.586 Q 201.719 11.316 201.667 11.608 A 0.802 0.802 0 0 1 201.641 11.719 A 25.194 25.194 0 0 0 201.601 12.012 Q 201.539 12.488 201.435 13.368 A 327.043 327.043 0 0 0 201.367 13.945 A 142.056 142.056 0 0 1 201.204 15.288 Q 201.129 15.881 201.043 16.532 A 256.197 256.197 0 0 1 200.859 17.891 Q 200.547 20.156 200.234 22.656 A 1219.543 1219.543 0 0 0 199.932 25.098 A 1051.365 1051.365 0 0 0 199.648 27.422 Q 199.375 29.688 199.141 31.367 A 60.257 60.257 0 0 0 199.049 32.048 Q 198.906 33.167 198.906 33.594 Z M 7.031 52.656 L 5 37.031 A 15.639 15.639 0 0 1 4.707 36.902 Q 4.238 36.69 3.594 36.367 A 12.976 12.976 0 0 1 1.953 35.391 A 7.862 7.862 0 0 1 0.813 34.425 A 7.102 7.102 0 0 1 0.586 34.18 A 2.497 2.497 0 0 1 0.191 33.588 A 1.99 1.99 0 0 1 0 32.735 A 6.12 6.12 0 0 1 1.38 32.885 A 5.239 5.239 0 0 1 2.148 33.125 Q 3.125 33.516 4.141 33.516 A 226.876 226.876 0 0 0 3.867 22.344 A 228.485 228.485 0 0 1 3.594 11.094 L 3.594 10 L 3.594 8.36 L 3.594 6.68 L 3.594 5.625 A 8.353 8.353 0 0 1 4.107 3.785 A 5.671 5.671 0 0 1 5.898 1.406 A 6.66 6.66 0 0 1 8.652 0.182 A 9.417 9.417 0 0 1 10.547 0 Q 12.17 0 14.08 0.765 A 14.647 14.647 0 0 1 14.492 0.938 A 25.42 25.42 0 0 1 17.431 2.465 A 30.533 30.533 0 0 1 18.828 3.36 A 31.601 31.601 0 0 1 22.301 6.103 A 35.97 35.97 0 0 1 23.086 6.836 A 32.069 32.069 0 0 1 26.089 10.143 A 28.637 28.637 0 0 1 26.719 10.977 A 27.553 27.553 0 0 1 28.405 13.581 A 22.561 22.561 0 0 1 29.258 15.235 A 11.562 11.562 0 0 1 29.925 17.035 Q 30.224 18.125 30.234 19.145 A 7.225 7.225 0 0 1 30.234 19.219 Q 30.234 23.219 29.368 26.169 A 15.012 15.012 0 0 1 28.75 27.891 A 14.437 14.437 0 0 1 26.406 31.669 A 12.985 12.985 0 0 1 24.531 33.438 Q 21.797 35.547 18.008 36.641 A 48.538 48.538 0 0 1 13.114 37.771 A 60.485 60.485 0 0 1 9.688 38.281 A 138.476 138.476 0 0 1 9.902 40.01 A 107.621 107.621 0 0 1 10.078 41.602 A 61.975 61.975 0 0 1 10.308 44.48 A 56.853 56.853 0 0 1 10.313 44.57 L 10.469 47.461 A 54.198 54.198 0 0 1 10.542 49.695 A 60.762 60.762 0 0 1 10.547 50.469 Q 10.547 50.86 10.508 51.563 A 8.697 8.697 0 0 1 10.313 52.969 A 4.045 4.045 0 0 1 10.028 53.815 A 3.496 3.496 0 0 1 9.805 54.219 A 1.131 1.131 0 0 1 8.986 54.749 A 1.594 1.594 0 0 1 8.75 54.766 A 0.906 0.906 0 0 1 8.379 54.683 Q 8.252 54.627 8.125 54.531 A 2.318 2.318 0 0 1 7.646 54.042 A 2.675 2.675 0 0 1 7.578 53.945 A 4.924 4.924 0 0 1 7.276 53.429 A 4.289 4.289 0 0 1 7.188 53.242 A 2.512 2.512 0 0 1 7.105 53.034 Q 7.034 52.825 7.031 52.667 A 0.717 0.717 0 0 1 7.031 52.656 Z M 120 41.719 Q 119.453 34.219 119.023 27.188 A 237.007 237.007 0 0 1 118.594 12.735 L 118.594 12.031 A 16.593 16.593 0 0 1 118.616 11.189 A 18.464 18.464 0 0 1 118.633 10.899 A 17.503 17.503 0 0 0 118.669 10.042 A 15.729 15.729 0 0 0 118.672 9.766 L 118.672 9.063 Q 118.75 8.516 119.219 7.695 Q 119.688 6.875 120.313 6.875 A 1.053 1.053 0 0 1 121.119 7.232 A 1.447 1.447 0 0 1 121.211 7.344 A 2.933 2.933 0 0 1 121.65 8.199 A 3.488 3.488 0 0 1 121.719 8.438 A 12.874 12.874 0 0 1 121.87 9.116 A 10.216 10.216 0 0 1 121.953 9.61 A 22.373 22.373 0 0 1 121.98 9.801 Q 122.019 10.091 122.028 10.235 A 1.211 1.211 0 0 1 122.031 10.313 A 26.291 26.291 0 0 1 122.073 10.667 Q 122.139 11.26 122.227 12.227 A 74.562 74.562 0 0 1 122.38 14.226 A 84.544 84.544 0 0 1 122.422 14.922 A 74.982 74.982 0 0 0 122.535 16.619 A 63.054 63.054 0 0 0 122.617 17.578 A 68.208 68.208 0 0 1 122.663 18.084 Q 122.734 18.914 122.734 19.219 L 122.734 21.328 L 122.734 25 L 122.734 29.492 L 122.734 33.985 L 122.734 37.617 L 122.734 39.688 A 13.403 13.403 0 0 0 123.32 43.633 Q 123.906 45.547 124.531 47.461 Q 125.156 49.375 125.703 51.289 A 14.013 14.013 0 0 1 126.25 55.156 Q 125.345 55.156 124.55 54.356 A 4.065 4.065 0 0 1 124.492 54.297 A 7.97 7.97 0 0 1 123.665 53.263 A 10.791 10.791 0 0 1 123.008 52.149 A 17.944 17.944 0 0 1 122.204 50.339 A 21.675 21.675 0 0 1 121.836 49.297 A 56.582 56.582 0 0 1 121.037 46.622 A 51.072 51.072 0 0 1 120.938 46.25 A 49.734 49.734 0 0 1 120.591 44.855 Q 120.432 44.17 120.313 43.555 A 59.77 59.77 0 0 1 120.205 42.986 Q 120.059 42.188 120 41.719 Z M 8.259 26.082 A 24.516 24.516 0 0 0 8.281 25.078 L 8.281 23.867 A 35.702 35.702 0 0 1 8.284 23.452 A 41.018 41.018 0 0 1 8.32 22.149 A 43.904 43.904 0 0 0 8.337 21.704 A 38.287 38.287 0 0 0 8.359 20.43 L 8.359 19.219 A 18.451 18.451 0 0 0 8.59 18.742 Q 8.695 18.516 8.78 18.314 A 8.277 8.277 0 0 0 8.945 17.891 Q 9.073 17.532 9.118 17.038 A 6.244 6.244 0 0 0 9.141 16.485 Q 9.141 16.156 9.06 15.907 A 1.012 1.012 0 0 0 8.594 15.313 A 37.693 37.693 0 0 0 8.018 14.99 A 49.093 49.093 0 0 0 7.383 14.649 A 3.367 3.367 0 0 1 6.739 14.201 A 4.379 4.379 0 0 1 6.172 13.594 A 1.769 1.769 0 0 1 5.986 13.294 Q 5.736 12.792 5.659 11.968 A 8.597 8.597 0 0 1 5.625 11.172 Q 5.625 10.488 5.701 9.652 A 26.791 26.791 0 0 1 5.82 8.594 A 11.822 11.822 0 0 1 5.86 8.317 A 10.505 10.505 0 0 1 6.563 5.82 A 7.081 7.081 0 0 1 6.791 5.333 A 5.912 5.912 0 0 1 8.047 3.672 A 3.155 3.155 0 0 1 9.222 2.986 A 3.785 3.785 0 0 1 10.391 2.813 A 6.884 6.884 0 0 1 10.419 2.813 Q 11.303 2.816 12.255 3.046 A 11.044 11.044 0 0 1 13.906 3.594 A 15.704 15.704 0 0 1 15.307 4.262 A 18.747 18.747 0 0 1 17.617 5.742 A 25.903 25.903 0 0 1 17.875 5.937 A 28.17 28.17 0 0 1 21.133 8.867 Q 22.813 10.625 24.063 12.578 A 23.94 23.94 0 0 1 24.725 13.677 A 20.372 20.372 0 0 1 26.055 16.485 A 12.324 12.324 0 0 1 26.564 18.156 A 9.113 9.113 0 0 1 26.797 20.156 Q 26.797 23.281 25.625 26.016 A 14.296 14.296 0 0 1 22.383 30.742 A 15.308 15.308 0 0 1 17.578 33.867 Q 14.844 35 11.719 35 A 5.705 5.705 0 0 1 11.227 34.98 Q 9.737 34.851 9.063 33.906 A 4.894 4.894 0 0 1 8.438 32.705 A 6.001 6.001 0 0 1 8.125 31.289 A 14.198 14.198 0 0 1 8.12 31.242 Q 8.037 30.407 8.048 29.514 A 18.668 18.668 0 0 1 8.125 28.047 A 47.638 47.638 0 0 0 8.19 27.267 Q 8.236 26.639 8.259 26.082 Z M 239.063 22.813 A 5.076 5.076 0 0 0 240.469 26.367 A 11.484 11.484 0 0 0 243.163 28.506 A 13.508 13.508 0 0 0 243.906 28.906 Q 245.938 29.922 248.203 30.391 A 25.942 25.942 0 0 0 249.954 30.694 Q 251.167 30.86 252.188 30.86 A 2.421 2.421 0 0 0 253.195 30.627 Q 253.812 30.346 254.453 29.727 A 14.975 14.975 0 0 0 256.213 27.676 A 17.19 17.19 0 0 0 256.602 27.11 Q 257.578 25.625 258.242 24.063 A 13.939 13.939 0 0 0 258.533 23.325 Q 258.906 22.285 258.906 21.641 Q 258.906 20.937 258.201 20.299 A 4.45 4.45 0 0 0 257.656 19.883 A 12.953 12.953 0 0 0 256.137 19.033 A 17.038 17.038 0 0 0 254.727 18.438 A 24.151 24.151 0 0 0 251.817 17.553 A 21.96 21.96 0 0 0 251.406 17.461 Q 249.766 17.11 248.984 17.11 A 9.907 9.907 0 0 0 248.034 17.159 Q 247.529 17.208 246.953 17.305 A 21.566 21.566 0 0 0 246.133 17.461 Q 244.453 17.813 242.852 18.516 A 10.053 10.053 0 0 0 241.221 19.411 A 8.139 8.139 0 0 0 240.156 20.274 A 3.552 3.552 0 0 0 239.303 21.515 A 3.463 3.463 0 0 0 239.063 22.813 Z M 269.063 12.422 L 268.359 11.094 A 1.695 1.695 0 0 1 268.316 11.136 Q 268.221 11.223 268.008 11.406 Q 267.784 11.598 267.691 11.685 A 1.54 1.54 0 0 0 267.656 11.719 Q 267.422 12.188 266.875 13.242 A 63.669 63.669 0 0 1 266.146 14.606 A 76.764 76.764 0 0 1 265.664 15.469 A 51.528 51.528 0 0 0 264.752 17.148 A 44.531 44.531 0 0 0 264.453 17.735 A 67.93 67.93 0 0 1 264.214 18.209 Q 263.915 18.795 263.741 19.101 A 6.084 6.084 0 0 1 263.672 19.219 Q 263.672 19.363 263.639 19.705 A 18.482 18.482 0 0 1 263.633 19.766 A 31.32 31.32 0 0 0 263.62 19.901 Q 263.594 20.171 263.594 20.235 A 3.399 3.399 0 0 0 263.686 20.988 Q 263.851 21.711 264.31 22.61 A 11.55 11.55 0 0 0 264.375 22.735 A 19.401 19.401 0 0 0 266.115 25.449 A 21.396 21.396 0 0 0 266.25 25.625 Q 267.344 27.031 268.555 28.047 A 6.567 6.567 0 0 0 269.21 28.535 Q 270.027 29.063 270.703 29.063 Q 270.703 28.672 270.664 27.891 A 181.393 181.393 0 0 1 270.625 27.07 A 238.2 238.2 0 0 1 270.586 26.172 A 238.2 238.2 0 0 0 270.547 25.274 A 181.393 181.393 0 0 0 270.508 24.453 Q 270.478 23.855 270.471 23.486 A 10.864 10.864 0 0 1 270.469 23.281 Q 270.329 22.303 270.158 20.762 A 165.39 165.39 0 0 1 270.117 20.391 Q 269.922 18.594 269.727 16.875 Q 269.559 15.398 269.391 14.21 A 67.339 67.339 0 0 0 269.336 13.828 Q 269.144 12.525 269.065 12.425 A 0.039 0.039 0 0 0 269.063 12.422 Z M 41.016 32.813 L 41.719 32.813 A 0.254 0.254 0 0 0 41.771 32.802 Q 41.946 32.755 42.637 32.498 A 68.036 68.036 0 0 0 42.734 32.461 Q 43.672 32.11 44.961 31.563 A 784.451 784.451 0 0 0 47.447 30.503 A 850.134 850.134 0 0 0 47.617 30.43 Q 48.984 29.844 49.844 29.531 A 1.475 1.475 0 0 0 50.002 29.467 Q 50.188 29.38 50.43 29.219 A 4.252 4.252 0 0 1 50.849 28.974 A 5.609 5.609 0 0 1 51.25 28.789 A 5.536 5.536 0 0 0 51.689 28.584 A 4.197 4.197 0 0 0 52.07 28.36 A 2.181 2.181 0 0 1 52.256 28.248 Q 52.448 28.146 52.597 28.129 A 0.516 0.516 0 0 1 52.656 28.125 A 19.134 19.134 0 0 0 50.71 27.697 A 23.075 23.075 0 0 0 49.609 27.539 A 46.262 46.262 0 0 0 46.289 27.266 Q 44.609 27.188 43.008 27.188 L 40.234 27.188 Q 40.234 28.828 40.391 30 A 37.1 37.1 0 0 0 40.472 30.974 Q 40.517 31.431 40.571 31.838 A 21.931 21.931 0 0 0 40.586 31.953 Q 40.679 32.636 40.896 32.777 A 0.217 0.217 0 0 0 41.016 32.813 Z M 266.328 32.188 L 267.031 31.563 Q 267.188 31.406 266.484 30.156 A 19.226 19.226 0 0 0 265.638 28.795 A 25.402 25.402 0 0 0 264.727 27.539 A 47.338 47.338 0 0 0 263.423 25.922 A 39.119 39.119 0 0 0 262.656 25.039 A 12.475 12.475 0 0 0 262.297 24.654 Q 261.761 24.104 261.447 23.959 A 0.481 0.481 0 0 0 261.25 23.906 A 0.173 0.173 0 0 0 261.172 23.926 Q 261.146 23.939 261.121 23.96 A 0.389 0.389 0 0 0 261.094 23.985 A 0.245 0.245 0 0 1 260.996 24.043 Q 260.958 24.056 260.911 24.06 A 0.55 0.55 0 0 1 260.859 24.063 A 41.244 41.244 0 0 0 258.672 27.656 A 45.05 45.05 0 0 0 256.797 31.563 A 4.063 4.063 0 0 0 257.514 31.914 Q 257.885 32.054 258.32 32.149 A 8.618 8.618 0 0 0 260.156 32.344 L 261.914 32.344 L 263.359 32.344 A 6.466 6.466 0 0 0 263.604 32.339 Q 263.84 32.33 264.141 32.305 A 11.284 11.284 0 0 1 265.078 32.266 A 9.74 9.74 0 0 0 265.413 32.26 Q 265.596 32.254 265.757 32.24 A 5.298 5.298 0 0 0 265.898 32.227 A 23.064 23.064 0 0 1 266.021 32.213 Q 266.245 32.19 266.317 32.188 A 0.43 0.43 0 0 1 266.328 32.188 Z" vector-effect="non-scaling-stroke"/></g></svg>